<svg width="65" height="65" viewBox="0 0 65 65" fill="none" xmlns="http://www.w3.org/2000/svg">
<path fill-rule="evenodd" clip-rule="evenodd" d="M15.4822 9.71924C15.365 9.86029 15.4417 10.0181 15.8559 10.4887C16.1425 10.8142 16.3769 11.1297 16.3769 11.1897C16.3769 11.2497 16.5449 11.2988 16.7503 11.2988C16.9557 11.2988 17.1699 11.3703 17.2264 11.4575C17.2829 11.5448 17.3576 12.7302 17.3926 14.0918L17.456 16.5673L20.376 16.6368C21.9819 16.675 23.3244 16.7221 23.3594 16.7415C23.3943 16.7608 23.0229 16.9274 22.5342 17.1117L21.6455 17.4466L16.6599 17.4899L11.6743 17.5331L11.3801 18.0024C11.2182 18.2605 10.1835 20.2556 9.08068 22.4359C7.20279 26.1486 7.07965 26.4358 7.13906 26.9628C7.26551 28.0842 8.02024 28.7041 9.39451 28.8152L10.2197 28.8818L10.249 40.5615L10.2785 52.2412L9.91261 53.3203C9.71139 53.9138 9.57301 54.4422 9.60512 54.4946C9.68422 54.6238 55.3515 54.6166 55.3515 54.4874C55.3515 54.4311 55.123 53.7986 54.8437 53.082L54.3359 51.7789V40.5442C54.3359 33.0426 54.3796 29.2279 54.4673 29.0639C54.5784 28.8563 54.7404 28.8179 55.5147 28.8163C56.2283 28.8146 56.5422 28.7509 56.9359 28.528C57.5026 28.2069 58.0124 27.4223 58.0155 26.8657C58.0186 26.3303 57.2202 24.6055 55.2468 20.8838L53.4968 17.583L48.2987 17.5158L43.1006 17.4487L42.2119 17.1127C41.1697 16.7187 40.9844 16.7519 44.8144 16.6462L47.6709 16.5673L47.7053 14.0018L47.7396 11.4363L48.1829 11.3531C48.4815 11.2971 48.7158 11.1398 48.9004 10.8717C49.0512 10.6527 49.3219 10.3452 49.5019 10.1885C49.8204 9.91081 49.8227 9.8985 49.5855 9.71454C49.2292 9.43829 15.7114 9.44286 15.4822 9.71924ZM23.7576 12.3741C23.7904 12.4068 24.8637 12.6963 26.1428 13.0172C27.4219 13.338 29.2184 13.8596 30.1351 14.1759C32.9463 15.1465 32.4234 15.1381 35.0663 14.2549C36.3431 13.8282 38.2732 13.2677 39.3554 13.0091C40.4377 12.7505 41.4375 12.4923 41.5771 12.4353C41.7168 12.3783 37.7511 12.3277 32.7644 12.3231C27.7778 12.3182 23.7247 12.3412 23.7576 12.3741ZM20.0508 12.895C19.7632 13.2417 19.8134 14.3806 20.1355 14.8125L20.4027 15.1709L24.198 15.2583C26.2854 15.3063 28.5232 15.3635 29.171 15.3853C29.8189 15.407 30.2473 15.386 30.1232 15.3388C29.999 15.2915 28.5263 14.9032 26.8506 14.476C25.1748 14.0489 23.1181 13.4944 22.2803 13.2442C20.2526 12.6385 20.2625 12.6401 20.0508 12.895ZM43.5449 13.0256C43.091 13.2004 41.1201 13.7701 39.165 14.2916C35.6105 15.2397 34.6541 15.5399 35.5469 15.4272C35.7912 15.3965 37.905 15.3344 40.2441 15.2896C42.5832 15.2446 44.591 15.1579 44.7059 15.0968C45.1682 14.8509 45.3558 13.4887 44.9976 12.9775C44.7502 12.6242 44.5714 12.6301 43.5449 13.0256ZM13.3958 19.0429C13.1088 19.147 8.37889 26.0599 8.37889 26.3754C8.37889 26.48 9.04679 26.533 10.6958 26.5594C11.97 26.5799 13.1621 26.5793 13.3448 26.5582C13.6273 26.5253 13.7472 26.3617 14.148 25.4619C14.4073 24.8804 15.2147 23.2782 15.9425 21.9018C16.6702 20.5254 17.2656 19.322 17.2656 19.2276C17.2656 19.0931 16.8668 19.0478 15.4183 19.0177C14.4022 18.9967 13.4922 19.008 13.3958 19.0429ZM19.949 19.2651C19.8838 19.3874 19.1928 20.91 18.4134 22.6489C16.9247 25.97 16.9138 26.019 17.6555 26.0235C17.835 26.0245 18.6062 26.2652 19.3693 26.5584C20.6946 27.0675 20.8207 27.0918 22.1805 27.098C23.2839 27.1029 23.6467 27.0617 23.7928 26.914C23.8966 26.8093 24.1528 25.9524 24.3622 25.0097C24.5716 24.0671 24.9458 22.4705 25.1937 21.4618C25.4416 20.4529 25.6445 19.496 25.6445 19.3353V19.0429H22.856C20.3301 19.0429 20.0563 19.0639 19.949 19.2651ZM28.4982 19.1745C28.4533 19.2468 28.1932 20.6782 27.92 22.3553C27.6468 24.0323 27.3905 25.5348 27.3505 25.6941C27.2858 25.952 27.3797 26.0302 28.2068 26.4074C29.1305 26.8287 29.1502 26.8316 31.7383 26.9285C33.1697 26.9822 34.6264 26.9936 34.9756 26.9541C35.621 26.881 37.5198 26.2223 37.6385 26.0304C37.6742 25.9724 37.6482 25.6335 37.5806 25.2768C37.513 24.9204 37.3133 23.5004 37.1369 22.1214C36.9605 20.7425 36.7866 19.4857 36.7504 19.3286L36.6846 19.0429H32.632C29.973 19.0429 28.5515 19.0881 28.4982 19.1745ZM39.2953 19.1646C39.1604 19.3828 41.0274 26.6817 41.2837 26.938C41.7814 27.4357 44.4426 27.1457 46.1474 26.4081C46.4966 26.257 47.0535 26.1011 47.3852 26.0617C47.717 26.0223 47.9883 25.9309 47.9883 25.8587C47.9883 25.7395 46.5423 22.7026 45.2588 20.1258L44.751 19.1064L42.0622 19.0721C40.374 19.0507 39.3444 19.0851 39.2953 19.1646ZM47.6074 19.2067C47.6074 19.3001 48.2728 20.5726 49.0859 22.0345C49.899 23.4963 50.7546 25.1065 50.987 25.6128L51.4096 26.5332H53.9942C55.4157 26.5332 56.6161 26.4958 56.6617 26.4503C56.7073 26.4046 56.6225 26.1618 56.473 25.9107C55.9505 25.0325 53.8449 21.8873 52.8525 20.5029L51.8516 19.1064L49.7294 19.0716C48.0244 19.0437 47.6074 19.0702 47.6074 19.2067ZM12.8615 27.8344C12.805 27.9218 12.742 33.4156 12.7216 40.0428C12.6915 49.7891 12.7157 52.1124 12.8485 52.1966C12.9388 52.2539 14.1634 52.3016 15.5699 52.3027C17.7859 52.3044 18.1374 52.2779 18.2042 52.1038C18.2466 51.9934 18.2812 47.4822 18.2812 42.079C18.2812 32.4963 18.2872 32.2518 18.5268 32.1235C18.6852 32.0387 20.7265 31.9922 24.281 31.9922H29.7897L30.0649 32.2852L30.3403 32.5782L30.3728 42.4097L30.4053 52.2412L41.0555 52.2737C48.8185 52.2973 51.7524 52.2673 51.8782 52.1628C52.0216 52.0439 52.0482 50.0312 52.0358 40.2604C52.0275 33.7926 51.9844 28.3296 51.9399 28.1201C51.8776 27.8261 51.7811 27.7302 51.5167 27.6996C51.2196 27.6653 51.1326 27.7423 50.8589 28.2823C50.018 29.9419 47.9735 30.7104 45.2982 30.3727C43.7286 30.1747 42.6835 29.6683 42.0639 28.8059C41.5538 28.0958 41.343 28.0371 41.0834 28.5327C40.3783 29.8789 38.3782 30.6077 36.1499 30.3305C34.8115 30.1639 33.7734 29.6195 33.1278 28.7455C32.848 28.3666 32.5779 28.0567 32.5277 28.0569C32.4775 28.057 32.2732 28.3156 32.0735 28.6316C31.3418 29.7899 29.8384 30.4687 28.0048 30.4687C26.2059 30.4687 24.8084 29.8697 24.0085 28.7559C23.7825 28.4411 23.5263 28.1836 23.4393 28.1836C23.3524 28.1836 23.1019 28.438 22.8828 28.749C22.1174 29.8348 20.9197 30.3443 18.9145 30.4371C16.3976 30.5535 14.6514 29.7466 13.8687 28.1054C13.7091 27.7707 13.5866 27.6757 13.3141 27.6757C13.1216 27.6757 12.918 27.7472 12.8615 27.8344ZM34.0526 34.2203C33.898 34.3286 33.7139 34.5249 33.6436 34.6564C33.4801 34.9618 33.6725 35.4969 33.9844 35.6035C34.259 35.6974 34.8821 36.5674 34.9648 36.9724C34.9971 37.131 35.0587 39.2174 35.1016 41.6089C35.1774 45.8378 35.1728 45.957 34.936 45.957C34.6239 45.957 34.0234 46.4263 34.0234 46.6702C34.0234 46.7731 34.1637 46.9974 34.3351 47.1688L34.6466 47.4804H40.2286H45.8106L46.208 47.146C46.7375 46.7006 46.7006 46.2266 46.1213 46.031C45.8975 45.9553 45.6457 45.8246 45.5619 45.7404C45.4495 45.6273 45.4064 44.3781 45.3977 40.9675C45.3842 35.776 45.38 35.8032 46.248 35.5214C46.939 35.2974 47.0709 34.9213 46.6386 34.4077L46.3153 34.0234H40.3246C35.1169 34.0234 34.2971 34.0492 34.0526 34.2203ZM20.1996 34.4507C20.0963 34.5753 20.065 36.121 20.0889 39.9398L20.122 45.2553L20.4862 45.4299C20.7431 45.553 20.9672 45.5708 21.2479 45.4903L21.6455 45.3763L21.6786 40.0001C21.7024 36.1368 21.6713 34.5753 21.5679 34.4507C21.3805 34.225 20.387 34.225 20.1996 34.4507ZM23.1358 34.3828C23.0102 34.4625 22.9828 35.6588 23.0088 39.9351L23.042 45.3857H24.1845H25.3271L25.3603 40.0049C25.384 36.1381 25.3529 34.5753 25.2496 34.4507C25.0902 34.2588 23.416 34.2049 23.1358 34.3828ZM26.8596 34.4768C26.6869 34.6495 26.6601 35.2025 26.6601 38.6027V42.5293L26.9458 42.5477C27.5366 42.5859 28.1233 42.4978 28.2134 42.3574C28.2647 42.2774 28.3075 40.4857 28.3086 38.376C28.3104 34.7125 28.2995 34.5343 28.065 34.4087C27.7019 34.2145 27.0873 34.2491 26.8596 34.4768ZM42.9419 36.6934C42.6793 36.7989 42.6562 36.8896 42.6562 37.8143C42.6562 38.9036 42.7026 38.9746 43.4148 38.9746C43.8495 38.9746 43.9258 38.8024 43.9258 37.8216C43.9258 37.2395 43.8685 37.013 43.6719 36.8164C43.3905 36.535 43.3519 36.5286 42.9419 36.6934ZM36.7765 36.7846C36.6505 37.0038 36.5512 38.1264 36.6273 38.473C36.7033 38.8189 36.7525 38.8476 37.2708 38.8476H37.832V37.9209C37.832 37.3694 37.7703 36.9324 37.6797 36.8418C37.5122 36.6743 36.8637 36.6333 36.7765 36.7846ZM38.7134 37.026C38.6411 37.2161 38.6223 37.6883 38.6702 38.1115L38.755 38.8606L39.2774 38.8224L39.7998 38.7841L39.8376 37.9158C39.8805 36.9305 39.7571 36.6894 39.2098 36.6894C38.928 36.6894 38.8112 36.7685 38.7134 37.026ZM40.7097 36.7741C40.6631 36.8206 40.625 37.3062 40.625 37.8532V38.8476H41.1827C41.8276 38.8476 41.8945 38.7504 41.8945 37.8132C41.8945 36.9554 41.7333 36.6894 41.2129 36.6894C40.9827 36.6894 40.7561 36.7275 40.7097 36.7741ZM39.0645 39.4457C38.7101 39.5003 38.7099 39.5009 38.7471 40.4118L38.7842 41.3232H39.292H39.7998V40.3728C39.7998 39.3495 39.7876 39.3342 39.0645 39.4457ZM41.0322 39.4557L40.6142 39.4993L40.6514 40.4113L40.6885 41.3232L41.1833 41.3637C41.7978 41.4141 41.8901 41.2813 41.8926 40.3438C41.8948 39.5266 41.7533 39.3806 41.0322 39.4557ZM42.7923 39.5348C42.7028 39.6426 42.6588 40.0348 42.6816 40.5187L42.7197 41.3232L43.2146 41.3637C43.5247 41.3891 43.7492 41.3417 43.8157 41.2368C43.9777 40.9813 43.9459 39.6803 43.7734 39.5078C43.5651 39.2994 42.9741 39.3157 42.7923 39.5348ZM36.6894 40.3686C36.6894 41.2003 36.7083 41.2596 36.9968 41.3321C37.6718 41.5014 37.7656 41.3935 37.8059 40.4014L37.8432 39.4824H37.2663H36.6894V40.3686ZM36.7741 41.9792C36.7275 42.0256 36.6894 42.4786 36.6894 42.9857C36.6894 44.0017 36.8535 44.3066 37.3999 44.3066C37.7909 44.3066 37.959 43.9066 37.959 42.9758C37.959 42.0165 37.8883 41.8945 37.3318 41.8945C37.0716 41.8945 36.8206 41.9326 36.7741 41.9792ZM38.7743 42.0651C38.7382 42.1589 38.7258 42.6528 38.7465 43.1626C38.7882 44.1898 38.942 44.406 39.5262 44.2594C39.8597 44.1757 39.8633 44.1626 39.8633 43.0347V41.8945H39.3515C39.0401 41.8945 38.814 41.9613 38.7743 42.0651ZM40.7046 42.0887C40.6608 42.2029 40.625 42.6588 40.625 43.1018C40.625 43.9866 40.8088 44.3066 41.3167 44.3066C41.7984 44.3066 41.9089 44.0357 41.8684 42.9539L41.831 41.958L41.3076 41.9198C40.9162 41.8911 40.764 41.9338 40.7046 42.0887ZM42.7409 41.9792C42.6943 42.0256 42.6562 42.5093 42.6562 43.0537C42.6562 43.9026 42.6913 44.0625 42.9018 44.1752C43.5793 44.5378 43.9258 44.1747 43.9258 43.1018C43.9258 42.0081 43.8667 41.8945 43.2986 41.8945C43.0384 41.8945 42.7874 41.9326 42.7409 41.9792ZM26.7866 43.609C26.5922 43.8432 26.6774 44.9736 26.9105 45.2546C27.1031 45.4865 27.9401 45.5149 28.1582 45.2968C28.4068 45.0483 28.3505 43.8743 28.0783 43.628C27.7884 43.3656 26.9982 43.354 26.7866 43.609Z" fill="white"/>
</svg>
