<?xml version="1.0" encoding="UTF-8" standalone="no"?>
<!DOCTYPE svg PUBLIC "-//W3C//DTD SVG 1.1//EN" "http://www.w3.org/Graphics/SVG/1.1/DTD/svg11.dtd">
<svg xmlns="http://www.w3.org/2000/svg" version="1.1" viewBox="0.00 0.00 487.00 193.00">
<g stroke-width="2.00" fill="none" stroke-linecap="butt">
<path stroke="#ed1055" vector-effect="non-scaling-stroke" d="
  M 69.68 53.72
  Q 66.22 55.03 62.91 53.44
  Q 62.39 53.19 61.82 53.26
  Q 59.01 53.61 56.32 52.33
  A 1.67 1.60 -36.6 0 0 55.28 52.20
  Q 53.74 52.52 52.29 51.63
  Q 51.73 51.29 51.08 51.30
  Q 49.32 51.34 47.78 50.42
  Q 47.29 50.13 46.73 50.23
  Q 45.50 50.43 44.48 49.56
  Q 44.07 49.21 43.54 49.30
  Q 42.17 49.54 41.24 48.42
  Q 41.01 48.16 40.69 48.29
  C 39.96 48.59 39.18 48.29 38.69 47.71
  Q 38.11 47.04 37.29 47.31
  A 1.46 1.45 -36.6 0 1 36.04 47.13
  Q 33.84 45.63 31.35 45.14
  Q 30.94 45.06 30.83 44.66
  Q 30.77 44.41 30.53 44.33
  Q 30.29 44.24 30.05 44.32
  Q 28.97 44.65 28.66 43.41
  Q 28.58 43.09 28.29 43.25
  L 28.06 43.37
  Q 27.67 43.58 27.34 43.29
  Q 25.61 41.81 23.39 41.25
  Q 23.13 41.19 23.06 40.93
  Q 23.02 40.79 22.93 40.68
  Q 22.65 40.36 22.15 40.25
  Q 20.76 39.94 19.23 39.46"
/>
<path stroke="#dc1150" vector-effect="non-scaling-stroke" d="
  M 72.25 84.20
  Q 68.85 84.69 64.97 83.97
  Q 64.68 83.91 64.61 83.62
  Q 64.54 83.35 64.24 83.36
  Q 60.28 83.56 57.24 82.27
  A 1.14 1.12 41.8 0 0 56.29 82.31
  Q 55.74 82.59 55.17 82.32
  Q 53.08 81.34 51.00 81.35
  Q 50.50 81.35 50.09 81.08
  Q 48.58 80.11 46.81 80.15
  Q 45.97 80.17 45.34 79.60
  A 0.96 0.95 61.5 0 0 44.55 79.36
  Q 43.17 79.56 42.20 78.67
  Q 41.97 78.46 41.67 78.41
  Q 41.27 78.33 40.87 78.38
  A 1.16 1.13 -27.3 0 1 39.95 78.10
  Q 39.05 77.29 37.91 77.39
  A 1.24 1.21 62.4 0 1 36.99 77.09
  L 36.43 76.60
  Q 36.06 76.27 35.56 76.19
  Q 33.40 75.84 31.37 74.53
  Q 30.96 74.27 30.48 74.29
  Q 29.67 74.32 29.07 73.74
  Q 28.70 73.39 28.20 73.41
  L 26.90 73.48"
/>
<path stroke="#ca1354" vector-effect="non-scaling-stroke" d="
  M 70.74 105.44
  Q 67.69 103.91 64.62 104.08
  Q 62.87 104.18 61.91 103.96
  Q 60.62 103.68 59.24 103.28
  A 1.53 1.53 0.0 0 0 58.29 103.31
  Q 57.79 103.49 57.30 103.32
  Q 56.24 102.97 55.16 102.56
  C 53.31 101.88 51.92 102.80 50.05 101.33
  A 0.61 0.60 55.5 0 0 49.50 101.22
  Q 47.99 101.66 46.80 100.74
  A 2.23 2.04 -17.0 0 0 45.98 100.35
  Q 42.43 99.57 39.47 98.35
  A 0.64 0.60 -28.4 0 0 39.28 98.30
  Q 38.19 98.19 37.24 97.50
  Q 36.78 97.15 36.20 97.19
  Q 35.06 97.26 34.47 96.33
  Q 34.31 96.07 34.01 96.14
  Q 33.16 96.35 32.58 95.70
  Q 32.25 95.33 31.75 95.31
  L 29.20 95.21"
/>
<path stroke="#b61554" vector-effect="non-scaling-stroke" d="
  M 67.69 122.46
  L 66.42 122.23
  Q 65.94 122.15 65.62 121.78
  Q 65.22 121.29 64.65 121.34
  Q 62.30 121.53 59.59 121.02
  Q 59.08 120.93 58.71 120.56
  Q 58.10 119.93 57.23 120.20
  C 55.87 120.63 54.34 120.24 53.29 119.34
  Q 53.04 119.13 52.71 119.21
  Q 51.00 119.67 49.37 118.55
  A 1.12 1.11 58.1 0 0 48.58 118.36
  Q 46.88 118.58 45.61 117.49
  A 1.24 1.21 -27.0 0 0 44.70 117.21
  Q 43.46 117.34 42.47 116.69
  Q 41.99 116.39 41.43 116.37
  Q 40.55 116.35 39.77 115.90
  Q 38.91 115.40 37.82 115.05
  Q 35.67 114.36 33.62 113.39
  Q 32.81 113.02 29.52 111.94"
/>
<path stroke="#dc1150" vector-effect="non-scaling-stroke" d="
  M 120.25 79.46
  Q 119.48 79.75 118.65 79.48
  Q 117.95 79.25 117.46 79.80
  Q 116.82 80.49 115.90 80.19
  Q 115.21 79.96 114.63 80.41
  Q 113.37 81.40 111.75 81.23
  A 1.99 1.93 35.0 0 0 110.76 81.39
  C 108.48 82.39 106.43 82.03 104.19 82.81
  Q 102.04 83.56 99.62 83.19
  Q 99.38 83.15 99.13 83.16
  Q 98.66 83.17 98.63 83.41
  Q 98.57 83.89 98.08 83.91
  L 89.76 84.23"
/>
<path stroke="#ca1354" vector-effect="non-scaling-stroke" d="
  M 116.08 101.59
  Q 113.70 101.37 111.55 101.97
  Q 110.51 102.26 109.43 102.43
  Q 108.35 102.61 107.30 102.85
  Q 105.68 103.22 104.17 103.37
  Q 102.55 103.54 100.97 103.94
  Q 98.69 104.53 95.76 104.14
  C 94.78 104.00 94.24 104.85 93.21 104.94
  Q 89.77 105.23 86.30 105.45"
/>
<path stroke="#b61554" vector-effect="non-scaling-stroke" d="
  M 108.79 120.48
  Q 106.89 120.25 105.17 120.16
  Q 105.02 120.15 104.88 120.18
  Q 104.64 120.24 104.59 120.49
  A 0.47 0.45 -88.6 0 1 104.25 120.83
  Q 102.08 121.35 99.78 121.22
  Q 98.34 121.13 96.79 121.69
  Q 94.38 122.56 91.44 122.27
  C 88.23 121.96 84.92 122.13 81.65 122.28"
/>
<path stroke="#b61554" vector-effect="non-scaling-stroke" d="
  M 142.65 107.50
  L 135.22 111.10"
/>
<path stroke="#7a2445" vector-effect="non-scaling-stroke" d="
  M 135.22 111.10
  Q 133.52 111.16 132.76 112.21"
/>
<path stroke="#b61554" vector-effect="non-scaling-stroke" d="
  M 132.76 112.21
  L 129.80 113.25
  Q 129.37 113.40 129.13 113.78
  Q 128.80 114.30 128.12 114.18
  Q 127.56 114.07 127.07 114.35
  Q 125.11 115.46 122.88 115.34"
/>
<path stroke="#6f2442" vector-effect="non-scaling-stroke" d="
  M 132.76 112.21
  Q 132.02 114.39 133.15 115.34
  A 2.24 2.24 0.0 0 0 136.61 114.58
  Q 137.56 112.58 135.22 111.10"
/>
<path stroke="#10a08d" vector-effect="non-scaling-stroke" d="
  M 55.92 159.19
  L 52.09 159.20
  Q 51.42 159.21 50.97 158.71
  Q 50.28 157.94 49.26 158.20
  A 1.73 1.73 0.0 0 1 47.76 157.88
  Q 46.63 156.98 45.18 157.19
  Q 44.46 157.29 43.98 156.74
  Q 43.32 155.97 42.32 156.17
  A 1.41 1.40 -26.8 0 1 41.02 155.75
  Q 40.31 154.97 39.28 155.20
  Q 38.24 155.42 37.81 154.45
  Q 37.59 153.96 37.08 154.18
  A 0.95 0.92 59.0 0 1 35.98 153.89
  Q 35.32 153.05 34.35 153.20
  Q 33.72 153.29 33.20 152.92
  Q 31.69 151.85 29.91 151.25
  A 2.37 2.22 -13.2 0 1 29.13 150.80
  Q 28.14 149.92 26.50 150.28"
/>
<path stroke="#942148" vector-effect="non-scaling-stroke" d="
  M 36.49 33.26
  A 2.25 2.25 0.0 0 0 34.24 31.01
  A 2.25 2.25 0.0 0 0 31.99 33.26
  A 2.25 2.25 0.0 0 0 34.24 35.51
  A 2.25 2.25 0.0 0 0 36.49 33.26"
/>
<path stroke="#8c2240" vector-effect="non-scaling-stroke" d="
  M 41.40 55.34
  A 2.24 2.24 0.0 0 0 39.16 53.10
  A 2.24 2.24 0.0 0 0 36.92 55.34
  A 2.24 2.24 0.0 0 0 39.16 57.58
  A 2.24 2.24 0.0 0 0 41.40 55.34"
/>
<path stroke="#8c2240" vector-effect="non-scaling-stroke" d="
  M 63.93 65.87
  A 2.22 2.22 0.0 0 0 61.71 63.65
  A 2.22 2.22 0.0 0 0 59.49 65.87
  A 2.22 2.22 0.0 0 0 61.71 68.09
  A 2.22 2.22 0.0 0 0 63.93 65.87"
/>
<path stroke="#8c2240" vector-effect="non-scaling-stroke" d="
  M 115.50 74.25
  A 2.25 2.25 0.0 0 0 113.25 72.00
  A 2.25 2.25 0.0 0 0 111.00 74.25
  A 2.25 2.25 0.0 0 0 113.25 76.50
  A 2.25 2.25 0.0 0 0 115.50 74.25"
/>
<path stroke="#832243" vector-effect="non-scaling-stroke" d="
  M 44.48 88.77
  A 2.25 2.25 0.0 0 0 42.23 86.52
  A 2.25 2.25 0.0 0 0 39.98 88.77
  A 2.25 2.25 0.0 0 0 42.23 91.02
  A 2.25 2.25 0.0 0 0 44.48 88.77"
/>
<path stroke="#832243" vector-effect="non-scaling-stroke" d="
  M 64.86 98.29
  A 2.25 2.25 0.0 0 0 62.61 96.04
  A 2.25 2.25 0.0 0 0 60.36 98.29
  A 2.25 2.25 0.0 0 0 62.61 100.54
  A 2.25 2.25 0.0 0 0 64.86 98.29"
/>
<path stroke="#832243" vector-effect="non-scaling-stroke" d="
  M 100.74 90.87
  A 2.25 2.25 0.0 0 0 98.49 88.62
  A 2.25 2.25 0.0 0 0 96.24 90.87
  A 2.25 2.25 0.0 0 0 98.49 93.12
  A 2.25 2.25 0.0 0 0 100.74 90.87"
/>
<path stroke="#7a2445" vector-effect="non-scaling-stroke" d="
  M 102.85 113.52
  A 2.28 2.28 0.0 0 0 100.57 111.24
  A 2.28 2.28 0.0 0 0 98.29 113.52
  A 2.28 2.28 0.0 0 0 100.57 115.80
  A 2.28 2.28 0.0 0 0 102.85 113.52"
/>
<path stroke="#6f2442" vector-effect="non-scaling-stroke" d="
  M 127.04 126.41
  A 2.27 2.27 0.0 0 0 124.77 124.14
  A 2.27 2.27 0.0 0 0 122.50 126.41
  A 2.27 2.27 0.0 0 0 124.77 128.68
  A 2.27 2.27 0.0 0 0 127.04 126.41"
/>
<path stroke="#6f2442" vector-effect="non-scaling-stroke" d="
  M 46.57 124.29
  A 2.26 2.26 0.0 0 0 44.31 122.03
  A 2.26 2.26 0.0 0 0 42.05 124.29
  A 2.26 2.26 0.0 0 0 44.31 126.55
  A 2.26 2.26 0.0 0 0 46.57 124.29"
/>
<path stroke="#6f2442" vector-effect="non-scaling-stroke" d="
  M 87.03 130.84
  A 2.27 2.27 0.0 0 0 84.76 128.57
  A 2.27 2.27 0.0 0 0 82.49 130.84
  A 2.27 2.27 0.0 0 0 84.76 133.11
  A 2.27 2.27 0.0 0 0 87.03 130.84"
/>
</g>
<path fill="#f40f5c" d="
  M 69.68 53.72
  Q 66.22 55.03 62.91 53.44
  Q 62.39 53.19 61.82 53.26
  Q 59.01 53.61 56.32 52.33
  A 1.67 1.60 -36.6 0 0 55.28 52.20
  Q 53.74 52.52 52.29 51.63
  Q 51.73 51.29 51.08 51.30
  Q 49.32 51.34 47.78 50.42
  Q 47.29 50.13 46.73 50.23
  Q 45.50 50.43 44.48 49.56
  Q 44.07 49.21 43.54 49.30
  Q 42.17 49.54 41.24 48.42
  Q 41.01 48.16 40.69 48.29
  C 39.96 48.59 39.18 48.29 38.69 47.71
  Q 38.11 47.04 37.29 47.31
  A 1.46 1.45 -36.6 0 1 36.04 47.13
  Q 33.84 45.63 31.35 45.14
  Q 30.94 45.06 30.83 44.66
  Q 30.77 44.41 30.53 44.33
  Q 30.29 44.24 30.05 44.32
  Q 28.97 44.65 28.66 43.41
  Q 28.58 43.09 28.29 43.25
  L 28.06 43.37
  Q 27.67 43.58 27.34 43.29
  Q 25.61 41.81 23.39 41.25
  Q 23.13 41.19 23.06 40.93
  Q 23.02 40.79 22.93 40.68
  Q 22.65 40.36 22.15 40.25
  Q 20.76 39.94 19.23 39.46
  Q 16.92 32.01 14.02 24.68
  Q 12.03 19.66 12.01 17.76
  C 11.94 12.90 16.89 8.28 22.03 9.35
  Q 24.42 9.85 27.08 11.00
  Q 49.01 20.50 55.05 23.63
  Q 62.40 27.45 65.41 36.25
  Q 67.84 43.36 69.68 53.72
  Z
  M 36.49 33.26
  A 2.25 2.25 0.0 0 0 34.24 31.01
  A 2.25 2.25 0.0 0 0 31.99 33.26
  A 2.25 2.25 0.0 0 0 34.24 35.51
  A 2.25 2.25 0.0 0 0 36.49 33.26
  Z"
/>
<circle fill="#333333" cx="34.24" cy="33.26" r="2.25"/>
<path fill="#e5104d" d="
  M 19.23 39.46
  Q 20.76 39.94 22.15 40.25
  Q 22.65 40.36 22.93 40.68
  Q 23.02 40.79 23.06 40.93
  Q 23.13 41.19 23.39 41.25
  Q 25.61 41.81 27.34 43.29
  Q 27.67 43.58 28.06 43.37
  L 28.29 43.25
  Q 28.58 43.09 28.66 43.41
  Q 28.97 44.65 30.05 44.32
  Q 30.29 44.24 30.53 44.33
  Q 30.77 44.41 30.83 44.66
  Q 30.94 45.06 31.35 45.14
  Q 33.84 45.63 36.04 47.13
  A 1.46 1.45 -36.6 0 0 37.29 47.31
  Q 38.11 47.04 38.69 47.71
  C 39.18 48.29 39.96 48.59 40.69 48.29
  Q 41.01 48.16 41.24 48.42
  Q 42.17 49.54 43.54 49.30
  Q 44.07 49.21 44.48 49.56
  Q 45.50 50.43 46.73 50.23
  Q 47.29 50.13 47.78 50.42
  Q 49.32 51.34 51.08 51.30
  Q 51.73 51.29 52.29 51.63
  Q 53.74 52.52 55.28 52.20
  A 1.67 1.60 -36.6 0 1 56.32 52.33
  Q 59.01 53.61 61.82 53.26
  Q 62.39 53.19 62.91 53.44
  Q 66.22 55.03 69.68 53.72
  Q 72.47 68.53 72.25 84.20
  Q 68.85 84.69 64.97 83.97
  Q 64.68 83.91 64.61 83.62
  Q 64.54 83.35 64.24 83.36
  Q 60.28 83.56 57.24 82.27
  A 1.14 1.12 41.8 0 0 56.29 82.31
  Q 55.74 82.59 55.17 82.32
  Q 53.08 81.34 51.00 81.35
  Q 50.50 81.35 50.09 81.08
  Q 48.58 80.11 46.81 80.15
  Q 45.97 80.17 45.34 79.60
  A 0.96 0.95 61.5 0 0 44.55 79.36
  Q 43.17 79.56 42.20 78.67
  Q 41.97 78.46 41.67 78.41
  Q 41.27 78.33 40.87 78.38
  A 1.16 1.13 -27.3 0 1 39.95 78.10
  Q 39.05 77.29 37.91 77.39
  A 1.24 1.21 62.4 0 1 36.99 77.09
  L 36.43 76.60
  Q 36.06 76.27 35.56 76.19
  Q 33.40 75.84 31.37 74.53
  Q 30.96 74.27 30.48 74.29
  Q 29.67 74.32 29.07 73.74
  Q 28.70 73.39 28.20 73.41
  L 26.90 73.48
  Q 24.42 56.23 19.23 39.46
  Z
  M 41.40 55.34
  A 2.24 2.24 0.0 0 0 39.16 53.10
  A 2.24 2.24 0.0 0 0 36.92 55.34
  A 2.24 2.24 0.0 0 0 39.16 57.58
  A 2.24 2.24 0.0 0 0 41.40 55.34
  Z
  M 63.93 65.87
  A 2.22 2.22 0.0 0 0 61.71 63.65
  A 2.22 2.22 0.0 0 0 59.49 65.87
  A 2.22 2.22 0.0 0 0 61.71 68.09
  A 2.22 2.22 0.0 0 0 63.93 65.87
  Z"
/>
<circle fill="#333333" cx="39.16" cy="55.34" r="2.24"/>
<path fill="#e5104d" d="
  M 120.25 79.46
  Q 119.48 79.75 118.65 79.48
  Q 117.95 79.25 117.46 79.80
  Q 116.82 80.49 115.90 80.19
  Q 115.21 79.96 114.63 80.41
  Q 113.37 81.40 111.75 81.23
  A 1.99 1.93 35.0 0 0 110.76 81.39
  C 108.48 82.39 106.43 82.03 104.19 82.81
  Q 102.04 83.56 99.62 83.19
  Q 99.38 83.15 99.13 83.16
  Q 98.66 83.17 98.63 83.41
  Q 98.57 83.89 98.08 83.91
  L 89.76 84.23
  Q 90.86 73.44 90.39 62.56
  Q 90.20 58.36 91.15 56.74
  C 92.92 53.69 97.54 51.87 100.70 54.33
  Q 102.35 55.62 103.73 56.98
  Q 110.77 63.87 117.55 70.72
  Q 120.74 73.94 120.25 79.46
  Z
  M 115.50 74.25
  A 2.25 2.25 0.0 0 0 113.25 72.00
  A 2.25 2.25 0.0 0 0 111.00 74.25
  A 2.25 2.25 0.0 0 0 113.25 76.50
  A 2.25 2.25 0.0 0 0 115.50 74.25
  Z"
/>
<circle fill="#333333" cx="61.71" cy="65.87" r="2.22"/>
<path fill="#d31152" d="
  M 407.94 83.41
  C 397.14 73.98 383.73 73.70 372.70 83.25
  C 371.70 84.11 370.50 83.69 369.30 83.78
  A 0.52 0.52 0.0 0 1 368.75 83.27
  L 368.74 80.70
  A 1.36 1.35 68.7 0 1 369.17 79.71
  C 379.23 70.32 393.27 68.68 405.36 75.33
  Q 408.30 76.96 410.67 79.29
  Q 412.00 80.61 411.44 83.33
  Q 411.34 83.83 410.83 84.00
  Q 409.22 84.53 407.94 83.41
  Z"
/>
<circle fill="#333333" cx="113.25" cy="74.25" r="2.25"/>
<path fill="#d31152" d="
  M 26.90 73.48
  L 28.20 73.41
  Q 28.70 73.39 29.07 73.74
  Q 29.67 74.32 30.48 74.29
  Q 30.96 74.27 31.37 74.53
  Q 33.40 75.84 35.56 76.19
  Q 36.06 76.27 36.43 76.60
  L 36.99 77.09
  A 1.24 1.21 62.4 0 0 37.91 77.39
  Q 39.05 77.29 39.95 78.10
  A 1.16 1.13 -27.3 0 0 40.87 78.38
  Q 41.27 78.33 41.67 78.41
  Q 41.97 78.46 42.20 78.67
  Q 43.17 79.56 44.55 79.36
  A 0.96 0.95 61.5 0 1 45.34 79.60
  Q 45.97 80.17 46.81 80.15
  Q 48.58 80.11 50.09 81.08
  Q 50.50 81.35 51.00 81.35
  Q 53.08 81.34 55.17 82.32
  Q 55.74 82.59 56.29 82.31
  A 1.14 1.12 41.8 0 1 57.24 82.27
  Q 60.28 83.56 64.24 83.36
  Q 64.54 83.35 64.61 83.62
  Q 64.68 83.91 64.97 83.97
  Q 68.85 84.69 72.25 84.20
  L 70.74 105.44
  Q 67.69 103.91 64.62 104.08
  Q 62.87 104.18 61.91 103.96
  Q 60.62 103.68 59.24 103.28
  A 1.53 1.53 0.0 0 0 58.29 103.31
  Q 57.79 103.49 57.30 103.32
  Q 56.24 102.97 55.16 102.56
  C 53.31 101.88 51.92 102.80 50.05 101.33
  A 0.61 0.60 55.5 0 0 49.50 101.22
  Q 47.99 101.66 46.80 100.74
  A 2.23 2.04 -17.0 0 0 45.98 100.35
  Q 42.43 99.57 39.47 98.35
  A 0.64 0.60 -28.4 0 0 39.28 98.30
  Q 38.19 98.19 37.24 97.50
  Q 36.78 97.15 36.20 97.19
  Q 35.06 97.26 34.47 96.33
  Q 34.31 96.07 34.01 96.14
  Q 33.16 96.35 32.58 95.70
  Q 32.25 95.33 31.75 95.31
  L 29.20 95.21
  L 26.90 73.48
  Z
  M 44.48 88.77
  A 2.25 2.25 0.0 0 0 42.23 86.52
  A 2.25 2.25 0.0 0 0 39.98 88.77
  A 2.25 2.25 0.0 0 0 42.23 91.02
  A 2.25 2.25 0.0 0 0 44.48 88.77
  Z
  M 64.86 98.29
  A 2.25 2.25 0.0 0 0 62.61 96.04
  A 2.25 2.25 0.0 0 0 60.36 98.29
  A 2.25 2.25 0.0 0 0 62.61 100.54
  A 2.25 2.25 0.0 0 0 64.86 98.29
  Z"
/>
<path fill="#d31152" d="
  M 120.25 79.46
  Q 119.39 90.72 116.08 101.59
  Q 113.70 101.37 111.55 101.97
  Q 110.51 102.26 109.43 102.43
  Q 108.35 102.61 107.30 102.85
  Q 105.68 103.22 104.17 103.37
  Q 102.55 103.54 100.97 103.94
  Q 98.69 104.53 95.76 104.14
  C 94.78 104.00 94.24 104.85 93.21 104.94
  Q 89.77 105.23 86.30 105.45
  L 89.76 84.23
  L 98.08 83.91
  Q 98.57 83.89 98.63 83.41
  Q 98.66 83.17 99.13 83.16
  Q 99.38 83.15 99.62 83.19
  Q 102.04 83.56 104.19 82.81
  C 106.43 82.03 108.48 82.39 110.76 81.39
  A 1.99 1.93 35.0 0 1 111.75 81.23
  Q 113.37 81.40 114.63 80.41
  Q 115.21 79.96 115.90 80.19
  Q 116.82 80.49 117.46 79.80
  Q 117.95 79.25 118.65 79.48
  Q 119.48 79.75 120.25 79.46
  Z
  M 100.74 90.87
  A 2.25 2.25 0.0 0 0 98.49 88.62
  A 2.25 2.25 0.0 0 0 96.24 90.87
  A 2.25 2.25 0.0 0 0 98.49 93.12
  A 2.25 2.25 0.0 0 0 100.74 90.87
  Z"
/>
<path fill="#d31152" d="
  M 397.50 81.70
  Q 401.45 82.99 404.58 86.06
  Q 405.85 87.30 405.11 89.72
  Q 404.95 90.23 404.47 90.42
  Q 402.66 91.12 401.25 89.80
  C 394.83 83.81 385.80 83.94 379.19 89.70
  Q 378.84 90.00 378.38 90.00
  L 375.74 89.99
  Q 375.23 89.99 375.24 89.49
  L 375.25 87.07
  Q 375.26 86.48 375.70 86.09
  Q 385.32 77.71 397.50 81.70
  Z"
/>
<circle fill="#333333" cx="42.23" cy="88.77" r="2.25"/>
<circle fill="#333333" cx="98.49" cy="90.87" r="2.25"/>
<path fill="#d31152" d="
  M 392.01 94.57
  Q 388.49 93.60 385.51 96.15
  Q 385.11 96.49 384.58 96.49
  L 382.13 96.50
  Q 381.50 96.50 381.50 95.88
  L 381.50 93.27
  A 1.00 1.00 0.0 0 1 381.90 92.47
  Q 389.13 86.99 396.77 91.22
  Q 399.71 92.84 398.53 96.35
  A 0.83 0.83 0.0 0 1 397.87 96.91
  C 395.44 97.32 394.22 95.17 392.01 94.57
  Z"
/>
<path fill="#c11456" d="
  M 29.20 95.21
  L 31.75 95.31
  Q 32.25 95.33 32.58 95.70
  Q 33.16 96.35 34.01 96.14
  Q 34.31 96.07 34.47 96.33
  Q 35.06 97.26 36.20 97.19
  Q 36.78 97.15 37.24 97.50
  Q 38.19 98.19 39.28 98.30
  A 0.64 0.60 -28.4 0 1 39.47 98.35
  Q 42.43 99.57 45.98 100.35
  A 2.23 2.04 -17.0 0 1 46.80 100.74
  Q 47.99 101.66 49.50 101.22
  A 0.61 0.60 55.5 0 1 50.05 101.33
  C 51.92 102.80 53.31 101.88 55.16 102.56
  Q 56.24 102.97 57.30 103.32
  Q 57.79 103.49 58.29 103.31
  A 1.53 1.53 0.0 0 1 59.24 103.28
  Q 60.62 103.68 61.91 103.96
  Q 62.87 104.18 64.62 104.08
  Q 67.69 103.91 70.74 105.44
  L 67.69 122.46
  L 66.42 122.23
  Q 65.94 122.15 65.62 121.78
  Q 65.22 121.29 64.65 121.34
  Q 62.30 121.53 59.59 121.02
  Q 59.08 120.93 58.71 120.56
  Q 58.10 119.93 57.23 120.20
  C 55.87 120.63 54.34 120.24 53.29 119.34
  Q 53.04 119.13 52.71 119.21
  Q 51.00 119.67 49.37 118.55
  A 1.12 1.11 58.1 0 0 48.58 118.36
  Q 46.88 118.58 45.61 117.49
  A 1.24 1.21 -27.0 0 0 44.70 117.21
  Q 43.46 117.34 42.47 116.69
  Q 41.99 116.39 41.43 116.37
  Q 40.55 116.35 39.77 115.90
  Q 38.91 115.40 37.82 115.05
  Q 35.67 114.36 33.62 113.39
  Q 32.81 113.02 29.52 111.94
  L 29.20 95.21
  Z"
/>
<circle fill="#333333" cx="62.61" cy="98.29" r="2.25"/>
<path fill="#c11456" d="
  M 142.65 107.50
  L 135.22 111.10
  Q 133.52 111.16 132.76 112.21
  L 129.80 113.25
  Q 129.37 113.40 129.13 113.78
  Q 128.80 114.30 128.12 114.18
  Q 127.56 114.07 127.07 114.35
  Q 125.11 115.46 122.88 115.34
  Q 127.36 107.12 130.65 98.74
  C 130.90 98.11 131.75 97.31 132.39 97.08
  Q 136.36 95.65 138.39 99.41
  Q 140.42 103.15 142.65 107.50
  Z"
/>
<path fill="#d31152" d="
  M 387.56 145.25
  A 0.33 0.33 0.0 0 1 387.23 144.92
  L 387.23 101.00
  A 3.01 2.86 -90.0 0 1 390.09 97.99
  L 390.39 97.99
  A 3.01 2.86 90.0 0 1 393.25 101.00
  L 393.25 144.92
  A 0.33 0.33 0.0 0 1 392.92 145.25
  L 387.56 145.25
  Z"
/>
<path fill="#0f9887" d="
  M 202.75 115.94
  Q 202.71 125.87 202.78 136.52
  C 202.81 140.86 208.45 140.45 211.42 140.20
  Q 211.74 140.18 211.74 140.51
  L 211.75 144.97
  Q 211.75 145.22 211.51 145.22
  C 204.52 145.44 196.65 145.92 196.72 136.26
  Q 196.80 124.79 196.74 115.74
  Q 196.74 115.22 196.22 115.23
  L 193.26 115.26
  Q 192.25 115.27 192.25 114.26
  L 192.25 111.00
  Q 192.25 110.25 193.00 110.25
  L 196.25 110.25
  Q 196.75 110.25 196.75 109.75
  L 196.75 101.50
  Q 196.75 101.25 197.00 101.25
  L 202.50 101.25
  Q 202.75 101.25 202.75 101.50
  L 202.75 109.75
  A 0.50 0.50 0.0 0 0 203.25 110.25
  L 211.37 110.25
  Q 211.75 110.25 211.75 110.62
  L 211.75 114.75
  Q 211.75 115.25 211.25 115.25
  L 203.44 115.25
  Q 202.75 115.25 202.75 115.94
  Z"
/>
<path fill="#c11456" d="
  M 116.08 101.59
  Q 113.21 111.32 108.79 120.48
  Q 106.89 120.25 105.17 120.16
  Q 105.02 120.15 104.88 120.18
  Q 104.64 120.24 104.59 120.49
  A 0.47 0.45 -88.6 0 1 104.25 120.83
  Q 102.08 121.35 99.78 121.22
  Q 98.34 121.13 96.79 121.69
  Q 94.38 122.56 91.44 122.27
  C 88.23 121.96 84.92 122.13 81.65 122.28
  L 86.30 105.45
  Q 89.77 105.23 93.21 104.94
  C 94.24 104.85 94.78 104.00 95.76 104.14
  Q 98.69 104.53 100.97 103.94
  Q 102.55 103.54 104.17 103.37
  Q 105.68 103.22 107.30 102.85
  Q 108.35 102.61 109.43 102.43
  Q 110.51 102.26 111.55 101.97
  Q 113.70 101.37 116.08 101.59
  Z
  M 102.85 113.52
  A 2.28 2.28 0.0 0 0 100.57 111.24
  A 2.28 2.28 0.0 0 0 98.29 113.52
  A 2.28 2.28 0.0 0 0 100.57 115.80
  A 2.28 2.28 0.0 0 0 102.85 113.52
  Z"
/>
<path fill="#aa1551" d="
  M 142.65 107.50
  Q 144.09 109.93 144.66 113.25
  Q 144.75 113.75 144.56 114.21
  C 143.93 115.73 143.54 117.17 142.55 118.54
  Q 140.61 121.24 138.55 123.83
  Q 137.01 125.75 134.71 126.78
  Q 122.16 132.36 110.54 134.87
  Q 109.75 135.05 110.25 134.41
  Q 117.34 125.31 122.88 115.34
  Q 125.11 115.46 127.07 114.35
  Q 127.56 114.07 128.12 114.18
  Q 128.80 114.30 129.13 113.78
  Q 129.37 113.40 129.80 113.25
  L 132.76 112.21
  Q 132.02 114.39 133.15 115.34
  A 2.24 2.24 0.0 0 0 136.61 114.58
  Q 137.56 112.58 135.22 111.10
  L 142.65 107.50
  Z
  M 127.04 126.41
  A 2.27 2.27 0.0 0 0 124.77 124.14
  A 2.27 2.27 0.0 0 0 122.50 126.41
  A 2.27 2.27 0.0 0 0 124.77 128.68
  A 2.27 2.27 0.0 0 0 127.04 126.41
  Z"
/>
<path fill="#0f9887" d="
  M 179.76 115.21
  L 179.75 110.50
  Q 179.75 110.25 180.00 110.25
  L 185.50 110.25
  A 0.25 0.25 0.0 0 1 185.75 110.50
  L 185.75 145.00
  A 0.25 0.25 0.0 0 1 185.50 145.25
  L 180.00 145.25
  Q 179.74 145.25 179.74 145.00
  L 179.77 140.20
  Q 179.78 139.28 179.22 140.01
  C 172.26 148.96 157.98 147.50 152.59 137.63
  C 146.48 126.43 151.63 109.81 166.48 109.54
  Q 174.64 109.39 179.28 115.38
  Q 179.76 115.99 179.76 115.21
  Z
  M 168.0552 140.6399
  A 12.95 11.84 89.8 0 0 179.8499 127.6487
  A 12.95 11.84 89.8 0 0 167.9648 114.7401
  A 12.95 11.84 89.8 0 0 156.1701 127.7313
  A 12.95 11.84 89.8 0 0 168.0552 140.6399
  Z"
/>
<path fill="#0f9887" d="
  M 223.47 130.00
  Q 222.42 130.00 222.64 131.03
  Q 224.81 140.83 234.51 140.72
  Q 240.66 140.65 243.58 134.49
  Q 243.69 134.25 243.96 134.24
  Q 249.25 134.16 250.06 134.42
  Q 250.12 134.44 250.10 134.50
  Q 246.84 144.42 236.66 145.70
  C 225.23 147.14 217.00 140.04 216.50 128.76
  C 216.10 119.90 220.12 112.32 229.10 110.08
  Q 233.55 108.98 238.09 109.96
  C 247.42 111.99 251.59 119.96 250.65 129.46
  A 0.61 0.60 -86.8 0 1 250.05 130.00
  L 223.47 130.00
  Z
  M 223.06 125.06
  L 244.40 124.94
  A 0.19 0.19 0.0 0 0 244.59 124.75
  L 244.59 124.63
  A 10.64 9.93 -0.3 0 0 233.89 114.76
  L 233.45 114.76
  A 10.64 9.93 -0.3 0 0 222.87 124.75
  L 222.87 124.87
  A 0.19 0.19 0.0 0 0 223.06 125.06
  Z"
/>
<path fill="#0f9887" d="
  M 264.75 114.43
  Q 268.47 109.42 275.19 109.51
  Q 275.49 109.51 275.49 109.81
  L 275.50 115.47
  Q 275.50 115.79 275.18 115.77
  Q 264.27 115.09 264.25 126.18
  Q 264.23 135.04 264.26 144.98
  A 0.27 0.27 0.0 0 1 263.99 145.25
  L 258.50 145.25
  Q 258.25 145.25 258.25 145.00
  L 258.25 111.13
  Q 258.25 110.25 259.13 110.25
  L 263.51 110.25
  Q 264.27 110.25 264.26 111.01
  L 264.22 114.25
  Q 264.21 115.16 264.75 114.43
  Z"
/>
<path fill="#d31152" d="
  M 311.96 116.57
  C 315.22 109.89 323.11 108.15 329.81 110.48
  C 335.97 112.62 338.43 118.49 338.47 124.72
  Q 338.54 134.74 338.49 144.95
  Q 338.48 145.25 338.19 145.25
  L 332.81 145.24
  Q 332.55 145.24 332.54 144.98
  Q 332.39 137.27 332.56 128.30
  C 332.69 121.45 331.23 115.08 323.20 114.77
  C 317.37 114.54 313.31 119.07 313.28 124.65
  Q 313.22 134.26 313.26 144.97
  A 0.28 0.28 0.0 0 1 312.98 145.25
  L 307.55 145.25
  Q 307.22 145.25 307.23 144.91
  Q 307.31 134.61 307.21 125.09
  Q 307.13 118.00 302.06 115.66
  C 297.21 113.43 290.76 115.25 288.90 120.62
  Q 287.90 123.51 287.95 127.13
  Q 288.07 136.85 287.97 145.01
  Q 287.97 145.25 287.73 145.25
  L 282.25 145.25
  Q 282.00 145.25 282.00 145.00
  L 282.00 111.00
  Q 282.00 110.25 282.75 110.25
  L 287.25 110.25
  Q 288.00 110.24 288.00 111.00
  L 288.00 113.76
  Q 288.01 114.79 288.68 114.01
  C 294.60 107.12 307.02 107.99 311.55 116.57
  A 0.23 0.23 0.0 0 0 311.96 116.57
  Z"
/>
<path fill="#d31152" d="
  M 351.73 130.62
  C 352.52 138.63 360.22 142.65 367.46 139.84
  Q 370.96 138.49 372.31 134.92
  Q 372.56 134.26 373.27 134.25
  L 378.45 134.24
  A 0.57 0.56 10.0 0 1 378.99 135.00
  Q 375.85 143.72 367.04 145.50
  C 356.66 147.60 347.35 141.94 345.77 131.17
  Q 344.61 123.22 348.18 117.19
  C 353.51 108.21 367.79 106.84 375.12 114.25
  C 379.37 118.54 380.11 123.77 379.72 129.56
  Q 379.69 130.00 379.26 130.00
  L 352.29 130.00
  Q 351.67 130.00 351.73 130.62
  Z
  M 352.12 125.02
  L 373.44 124.98
  A 0.19 0.19 0.0 0 0 373.63 124.79
  L 373.63 124.66
  A 10.74 9.96 -0.1 0 0 362.87 114.72
  L 362.65 114.72
  A 10.74 9.96 -0.1 0 0 351.93 124.70
  L 351.93 124.83
  A 0.19 0.19 0.0 0 0 352.12 125.02
  Z"
/>
<path fill="#d31152" d="
  M 416.3556 145.9645
  A 18.38 18.00 96.7 0 1 400.6229 125.6099
  A 18.38 18.00 96.7 0 1 420.6444 109.4555
  A 18.38 18.00 96.7 0 1 436.3771 129.8101
  A 18.38 18.00 96.7 0 1 416.3556 145.9645
  Z
  M 418.1980 140.6672
  A 12.99 11.76 91.2 0 0 430.2274 127.9263
  A 12.99 11.76 91.2 0 0 418.7420 114.6928
  A 12.99 11.76 91.2 0 0 406.7126 127.4337
  A 12.99 11.76 91.2 0 0 418.1980 140.6672
  Z"
/>
<path fill="#d31152" d="
  M 450.25 114.16
  C 456.78 106.62 470.44 108.23 474.22 117.85
  Q 475.53 121.20 475.32 129.07
  Q 475.10 136.97 475.30 144.74
  Q 475.32 145.25 474.81 145.25
  L 469.55 145.24
  Q 469.31 145.24 469.30 145.00
  Q 469.12 135.96 469.33 126.68
  Q 469.42 122.33 468.14 119.73
  C 464.77 112.92 454.40 113.15 451.10 119.63
  Q 449.59 122.58 449.69 128.21
  Q 449.85 137.21 449.71 145.03
  Q 449.71 145.24 449.49 145.24
  L 444.00 145.25
  A 0.25 0.25 0.0 0 1 443.75 145.00
  L 443.75 111.12
  Q 443.75 110.25 444.63 110.25
  L 449.01 110.25
  Q 449.76 110.25 449.76 111.01
  L 449.74 113.96
  Q 449.74 114.75 450.25 114.16
  Z"
/>
<circle fill="#333333" cx="100.57" cy="113.52" r="2.28"/>
<path fill="#333333" d="
  M 135.22 111.10
  Q 137.56 112.58 136.61 114.58
  A 2.24 2.24 0.0 0 1 133.15 115.34
  Q 132.02 114.39 132.76 112.21
  Q 133.52 111.16 135.22 111.10
  Z"
/>
<path fill="#aa1551" d="
  M 29.52 111.94
  Q 32.81 113.02 33.62 113.39
  Q 35.67 114.36 37.82 115.05
  Q 38.91 115.40 39.77 115.90
  Q 40.55 116.35 41.43 116.37
  Q 41.99 116.39 42.47 116.69
  Q 43.46 117.34 44.70 117.21
  A 1.24 1.21 -27.0 0 1 45.61 117.49
  Q 46.88 118.58 48.58 118.36
  A 1.12 1.11 58.1 0 1 49.37 118.55
  Q 51.00 119.67 52.71 119.21
  Q 53.04 119.13 53.29 119.34
  C 54.34 120.24 55.87 120.63 57.23 120.20
  Q 58.10 119.93 58.71 120.56
  Q 59.08 120.93 59.59 121.02
  Q 62.30 121.53 64.65 121.34
  Q 65.22 121.29 65.62 121.78
  Q 65.94 122.15 66.42 122.23
  L 67.69 122.46
  L 63.97 136.60
  Q 63.89 136.90 63.58 136.86
  Q 46.37 134.66 29.49 127.23
  Q 29.03 127.03 29.05 126.53
  L 29.52 111.94
  Z
  M 46.57 124.29
  A 2.26 2.26 0.0 0 0 44.31 122.03
  A 2.26 2.26 0.0 0 0 42.05 124.29
  A 2.26 2.26 0.0 0 0 44.31 126.55
  A 2.26 2.26 0.0 0 0 46.57 124.29
  Z"
/>
<path fill="#aa1551" d="
  M 108.79 120.48
  L 99.82 136.40
  Q 99.54 136.89 98.98 136.96
  Q 88.27 138.38 76.56 137.95
  Q 75.96 137.92 76.16 137.35
  L 81.65 122.28
  C 84.92 122.13 88.23 121.96 91.44 122.27
  Q 94.38 122.56 96.79 121.69
  Q 98.34 121.13 99.78 121.22
  Q 102.08 121.35 104.25 120.83
  A 0.47 0.45 -88.6 0 0 104.59 120.49
  Q 104.64 120.24 104.88 120.18
  Q 105.02 120.15 105.17 120.16
  Q 106.89 120.25 108.79 120.48
  Z
  M 87.03 130.84
  A 2.27 2.27 0.0 0 0 84.76 128.57
  A 2.27 2.27 0.0 0 0 82.49 130.84
  A 2.27 2.27 0.0 0 0 84.76 133.11
  A 2.27 2.27 0.0 0 0 87.03 130.84
  Z"
/>
<circle fill="#333333" cx="44.31" cy="124.29" r="2.26"/>
<circle fill="#333333" cx="124.77" cy="126.41" r="2.27"/>
<circle fill="#333333" cx="84.76" cy="130.84" r="2.27"/>
<path fill="#11a892" d="
  M 55.92 159.19
  L 52.09 159.20
  Q 51.42 159.21 50.97 158.71
  Q 50.28 157.94 49.26 158.20
  A 1.73 1.73 0.0 0 1 47.76 157.88
  Q 46.63 156.98 45.18 157.19
  Q 44.46 157.29 43.98 156.74
  Q 43.32 155.97 42.32 156.17
  A 1.41 1.40 -26.8 0 1 41.02 155.75
  Q 40.31 154.97 39.28 155.20
  Q 38.24 155.42 37.81 154.45
  Q 37.59 153.96 37.08 154.18
  A 0.95 0.92 59.0 0 1 35.98 153.89
  Q 35.32 153.05 34.35 153.20
  Q 33.72 153.29 33.20 152.92
  Q 31.69 151.85 29.91 151.25
  A 2.37 2.22 -13.2 0 1 29.13 150.80
  Q 28.14 149.92 26.50 150.28
  L 28.78 131.09
  Q 28.84 130.56 29.33 130.77
  Q 45.05 137.61 62.21 140.35
  Q 62.76 140.44 62.56 140.96
  L 55.92 159.19
  Z"
/>
<path fill="#11a892" d="
  M 101.15 148.19
  A 0.84 0.84 0.0 0 1 100.57 146.96
  Q 102.69 143.11 105.96 139.79
  Q 106.35 139.39 106.90 139.29
  Q 118.67 136.99 129.39 132.62
  Q 130.87 132.02 129.71 133.12
  Q 123.58 138.89 114.75 145.42
  Q 111.64 147.71 108.58 148.21
  Q 104.66 148.85 101.15 148.19
  Z"
/>
<path fill="#11a892" d="
  M 69.53 151.66
  C 71.17 148.55 72.56 145.25 74.09 141.99
  Q 74.28 141.57 74.75 141.59
  Q 85.62 142.17 95.99 140.97
  Q 96.90 140.86 96.37 141.61
  C 93.27 146.00 90.86 150.40 85.51 152.41
  Q 78.89 154.89 72.57 157.36
  A 2.81 2.76 46.1 0 1 70.42 157.30
  C 68.02 156.23 68.55 153.50 69.53 151.66
  Z"
/>
<path fill="#0f9887" d="
  M 26.50 150.28
  Q 28.14 149.92 29.13 150.80
  A 2.37 2.22 -13.2 0 0 29.91 151.25
  Q 31.69 151.85 33.20 152.92
  Q 33.72 153.29 34.35 153.20
  Q 35.32 153.05 35.98 153.89
  A 0.95 0.92 59.0 0 0 37.08 154.18
  Q 37.59 153.96 37.81 154.45
  Q 38.24 155.42 39.28 155.20
  Q 40.31 154.97 41.02 155.75
  A 1.41 1.40 -26.8 0 0 42.32 156.17
  Q 43.32 155.97 43.98 156.74
  Q 44.46 157.29 45.18 157.19
  Q 46.63 156.98 47.76 157.88
  A 1.73 1.73 0.0 0 0 49.26 158.20
  Q 50.28 157.94 50.97 158.71
  Q 51.42 159.21 52.09 159.20
  L 55.92 159.19
  Q 52.48 167.34 45.39 172.65
  Q 33.98 181.18 30.50 183.47
  Q 27.97 185.14 24.75 183.57
  Q 21.18 181.83 21.94 177.28
  Q 24.19 163.74 26.50 150.28
  Z"
/>
</svg>
