<?xml version="1.0" encoding="UTF-8" standalone="no"?>
<!DOCTYPE svg PUBLIC "-//W3C//DTD SVG 1.1//EN" "http://www.w3.org/Graphics/SVG/1.1/DTD/svg11.dtd">
<svg xmlns="http://www.w3.org/2000/svg" version="1.1" viewBox="0.00 0.00 372.00 517.00">
<path fill="#ffffff" d="
  M 0.00 49.63
  L 0.00 43.73
  Q 2.88 32.15 12.37 26.37
  Q 17.67 23.14 23.05 23.23
  Q 28.74 23.33 33.33 25.55
  Q 34.71 26.22 36.12 26.81
  Q 74.83 43.21 110.16 59.31
  Q 127.45 67.20 136.90 82.59
  C 140.49 88.44 143.21 95.04 145.22 102.08
  Q 157.87 146.53 160.75 191.00
  Q 161.02 195.16 161.26 199.32
  Q 161.50 203.44 161.49 207.35
  C 161.46 219.50 161.72 232.06 161.05 244.49
  Q 157.75 304.92 139.23 365.55
  A 0.42 0.42 0.0 0 1 138.77 365.84
  C 106.54 361.15 75.92 352.88 46.27 339.41
  Q 45.70 339.15 45.67 338.52
  C 45.43 333.82 46.27 329.38 46.33 324.75
  Q 46.39 319.66 46.77 315.11
  Q 47.53 305.94 46.96 272.25
  Q 46.89 268.17 46.66 263.76
  Q 46.44 259.34 46.20 255.25
  C 42.46 190.01 29.27 125.49 5.34 64.49
  C 3.63 60.15 1.01 55.13 0.00 49.63
  Z"
/>
<path fill="#ffffff" d="
  M 265.34 309.07
  Q 261.47 317.98 257.20 326.63
  Q 249.85 341.51 235.26 365.16
  Q 234.95 365.65 234.38 365.72
  Q 215.42 368.11 203.63 368.46
  Q 190.12 368.87 177.31 368.79
  Q 174.51 368.77 171.78 368.50
  A 0.45 0.44 -75.8 0 1 171.42 367.88
  Q 185.17 334.60 193.91 302.76
  Q 205.47 260.61 209.19 217.21
  Q 209.60 212.34 209.80 207.30
  C 209.97 203.11 210.50 199.12 210.50 194.89
  Q 210.48 182.75 210.50 171.75
  Q 210.51 168.90 210.11 165.92
  C 209.06 158.15 210.36 150.56 216.62 145.94
  C 221.62 142.25 230.42 139.27 235.91 143.24
  Q 242.04 147.66 246.57 152.12
  Q 263.85 169.10 281.62 187.06
  Q 287.97 193.49 289.80 202.13
  C 290.64 206.12 290.48 211.35 290.07 215.40
  Q 285.31 263.08 265.34 309.07
  Z"
/>
<path fill="#ffffff" d="
  M 355.92 303.51
  C 354.06 308.12 352.72 312.93 349.83 316.90
  Q 344.00 324.93 336.80 333.34
  Q 334.66 335.84 331.89 337.14
  Q 300.12 352.16 264.12 360.42
  Q 261.79 360.96 263.27 359.08
  Q 297.16 316.11 317.18 265.64
  C 319.91 258.78 324.77 257.03 331.79 258.56
  C 335.42 259.35 338.12 264.11 339.74 267.13
  Q 344.86 276.66 350.25 286.67
  C 352.93 291.66 354.44 296.80 355.99 302.20
  A 2.05 1.99 -42.8 0 1 355.92 303.51
  Z"
/>
<path fill="#ffffff" d="
  M 372.00 338.13
  L 372.00 343.00
  L 371.66 354.42
  Q 371.65 354.55 371.53 354.55
  L 371.26 354.56
  Q 371.04 354.57 371.02 354.35
  Q 369.69 339.30 371.09 324.65
  Q 371.18 323.68 371.24 324.65
  L 372.00 338.13
  Z"
/>
<path fill="#ffffff" d="
  M 111.43 438.04
  Q 105.73 446.86 99.32 453.04
  Q 92.48 459.62 82.38 466.94
  Q 66.45 478.48 51.84 489.07
  Q 40.53 497.26 30.33 487.67
  C 25.09 482.74 25.92 475.47 27.06 469.12
  Q 31.06 447.04 35.19 423.50
  Q 40.52 393.17 42.34 376.83
  Q 43.84 363.36 44.83 349.32
  A 0.67 0.67 0.0 0 1 45.78 348.75
  Q 58.71 354.62 71.61 359.29
  C 75.78 360.80 80.24 361.85 84.52 363.21
  Q 96.85 367.14 116.02 371.52
  Q 126.05 373.81 136.01 375.01
  A 0.31 0.31 0.0 0 1 136.27 375.42
  Q 128.71 398.05 119.72 420.98
  Q 115.47 431.80 111.43 438.04
  Z"
/>
<path fill="#ffffff" d="
  M 237.12 394.15
  C 238.03 392.03 238.68 389.58 240.08 387.76
  Q 244.93 381.50 250.45 374.76
  C 252.68 372.04 254.93 372.04 258.17 371.37
  Q 288.00 365.25 315.48 353.83
  Q 317.08 353.16 316.32 354.72
  Q 316.06 355.26 315.60 355.69
  Q 295.82 374.07 272.76 390.37
  Q 266.53 394.77 260.00 395.80
  Q 251.32 397.17 243.42 396.77
  Q 240.51 396.63 237.39 394.94
  A 0.63 0.62 -64.1 0 1 237.12 394.15
  Z"
/>
<path fill="#ffffff" d="
  M 153.29 407.49
  C 158.24 397.62 162.59 387.85 167.24 378.13
  Q 167.49 377.60 168.02 377.84
  Q 169.30 378.39 170.63 378.43
  Q 181.51 378.72 196.48 378.75
  Q 200.14 378.76 203.71 378.36
  C 207.07 377.98 210.39 378.15 213.77 377.76
  Q 219.07 377.14 223.96 376.77
  Q 225.48 376.65 226.98 377.08
  A 0.33 0.33 0.0 0 1 227.15 377.61
  Q 221.54 384.65 217.05 391.21
  C 211.88 398.77 205.46 404.18 197.04 407.37
  Q 180.79 413.52 162.97 420.34
  C 154.11 423.73 149.75 414.55 153.29 407.49
  Z"
/>
</svg>
