<svg width="50" height="50" viewBox="0 0 80 80" fill="none" xmlns="http://www.w3.org/2000/svg">
<path fill-rule="evenodd" clip-rule="evenodd" d="M38.3389 4.86628C32.9839 5.523 27.8554 8.46597 25.9884 11.9532C24.8449 14.0891 24.5578 15.2286 24.5711 17.5782C24.5786 18.9002 24.6797 20.0186 24.8608 20.7813C25.3875 23.0005 25.4306 22.7541 24.4933 22.8739C22.8312 23.0866 21.9623 24.375 22.0719 26.465C22.1268 27.5136 22.2251 27.8118 23.0067 29.3014C24.0011 31.1966 24.9524 32.2449 26.1807 32.7988C26.887 33.1174 27.1501 33.1527 28.2254 33.0732L29.4597 32.9819L30.1548 34.79C31.2884 37.7386 31.975 38.4821 34.1145 39.0778C35.6343 39.5011 35.9883 39.6475 35.9883 39.8524C35.9883 40.2139 35.0526 40.9011 34.1221 41.2232C32.4099 41.8158 32.3535 41.8635 32.234 42.8182C32.1737 43.3007 31.8117 44.3513 31.4016 45.2344C30.4583 47.265 29.666 49.4402 29.666 49.9996C29.666 50.915 31.1169 53.4689 32.9016 55.6947C33.7809 56.7914 33.8754 56.9788 33.7847 57.4446C33.579 58.5013 33.5802 58.5033 34.4525 58.6477L35.2674 58.7824L34.9633 61.3833C34.7658 63.073 34.4956 64.5046 34.1923 65.4688C33.9112 66.3625 33.6927 67.4769 33.6429 68.2692C33.5761 69.3369 33.4941 69.6535 33.208 69.9469C32.8753 70.2883 32.8672 70.356 33.0643 71.1477C33.2548 71.913 33.2425 72.0655 32.9236 72.8867C32.7315 73.3817 32.6156 73.9125 32.6664 74.0663C32.8907 74.7477 35.9001 75.2867 38.0413 75.0292C39.758 74.8228 40.2031 74.6406 40.2031 74.1446C40.2031 73.6936 39.9506 73.4403 38.8657 72.803C38.0333 72.3139 37.9122 71.9777 38.3413 71.3466C38.5658 71.0161 38.5584 70.9508 38.2539 70.5777L37.9213 70.17L38.4047 69.5269C39.0557 68.6606 39.3347 67.7358 39.5353 65.7791C39.7056 64.118 40.7498 59.4107 41.0017 59.1678C41.2562 58.9225 41.9003 59.1366 42.0948 59.5313C42.4161 60.1828 43.439 64.76 43.6013 66.2717C43.7289 67.4608 43.8619 67.8947 44.4248 68.956C45.0778 70.1875 45.0888 70.2338 44.8307 70.6549C44.6185 71.0011 44.6031 71.1556 44.7536 71.4269C44.8973 71.6855 44.8943 72.0338 44.7409 72.8978C44.6305 73.5205 44.5897 74.1074 44.6504 74.2021C44.7216 74.3131 45.5756 74.3789 47.0615 74.3877C48.3269 74.395 49.9824 74.4097 50.7403 74.4202C52.4294 74.4435 53.3838 74.0889 53.4655 73.408C53.5363 72.8155 53.0322 72.3946 51.8826 72.0864C50.6112 71.7458 50.0288 71.181 50.0636 70.3227C50.0827 69.8525 49.989 69.5967 49.6796 69.2749C49.3247 68.906 49.2843 68.7585 49.3764 68.1672C49.4688 67.5735 49.3978 67.3194 48.8287 66.2036C48.3175 65.2017 48.1506 64.666 48.0645 63.75C48.0037 63.1055 47.8158 61.6992 47.6467 60.625C47.4776 59.5508 47.3385 58.5213 47.3377 58.3371C47.3351 57.8339 47.7649 57.7713 48.2185 58.2086C48.4383 58.4205 48.7923 58.5938 49.0054 58.5938C49.3406 58.5938 49.4478 58.4413 49.8012 57.461C50.0258 56.8378 50.4295 55.8321 50.6984 55.2258C51.2023 54.0896 52.3613 50.0097 52.3613 49.3725C52.3613 49.175 51.779 47.7949 51.0674 46.3055C50.3556 44.8161 49.6888 43.2628 49.5855 42.8535C49.4821 42.4442 49.2988 41.9986 49.1777 41.8632C49.0567 41.7277 48.3718 41.4203 47.6556 41.18C46.4366 40.771 45.8898 40.3592 46.1099 40.016C46.1571 39.9424 46.6164 39.7213 47.1306 39.5244C49.7858 38.5083 50.9165 37.6191 51.509 36.0811C51.6883 35.6153 51.9637 34.5399 52.1211 33.6911C52.3874 32.2538 52.4408 32.1303 52.8973 31.8942C53.7991 31.4278 54.6792 30.5542 55.0425 29.7649C56.7532 26.0467 56.6072 23.223 54.686 22.8757C53.973 22.7467 53.9774 22.4569 54.7298 20.0644C55.5291 17.5222 55.5603 16.2636 54.8583 14.8438C54.5822 14.2852 54.0799 13.5117 53.742 13.125C52.7433 11.9816 52.6384 11.7833 52.8399 11.4203C53.3953 10.4202 50.95 8.07956 47.706 6.50628C46.0608 5.70831 44.3535 5.18644 42.5135 4.91909C40.7772 4.66675 40.0409 4.65753 38.3389 4.86628ZM41.419 8.38644C39.4231 8.62566 37.0474 9.03097 34.1749 9.62222C32.3306 10.0019 30.6037 10.3125 30.3375 10.3125C29.9507 10.3125 29.6993 10.4863 29.0881 11.1757C28.6673 11.6505 28.356 12.0707 28.3964 12.1096C28.4368 12.1485 28.8274 11.8303 29.2645 11.4027C29.7015 10.975 30.1884 10.625 30.3462 10.625C30.6115 10.625 30.6069 10.6743 30.2866 11.2664C29.9444 11.8993 29.4564 13.6 29.5822 13.7213C29.6179 13.7557 29.868 13.3016 30.1383 12.7122C30.9678 10.9028 31.0059 10.8536 31.5394 10.9083C31.8018 10.9353 33.0014 10.9661 34.2051 10.9769C36.0227 10.9933 36.7611 10.9232 38.5626 10.5628C40.417 10.1921 44.4793 8.99487 45.1974 8.60738C45.6241 8.37738 42.8488 8.21503 41.419 8.38644ZM32.1528 13.7507C32.3485 16.4085 31.89 18.28 30.3069 21.285C29.5432 22.7349 29.3418 23.2671 29.3418 23.8364C29.3418 25.4027 31.6151 34.5136 32.4002 36.0938C32.9559 37.2122 33.7081 37.6994 35.6406 38.1928C41.2648 39.6288 46.4183 39.1453 48.9452 36.9449C50.1636 35.8839 50.3672 35.298 51.0674 30.84C51.3355 29.1319 51.6952 26.8907 51.8668 25.8594C52.4228 22.5135 52.433 21.8458 51.9608 19.6766C51.7281 18.6085 51.4339 16.9258 51.3067 15.9375C51.0029 13.5775 50.8041 12.9105 50.4454 13.0482C47.5875 14.1439 45.1335 14.5839 41.9053 14.5792C38.2544 14.5741 35.959 14.118 33.3232 12.8746C32.7044 12.5827 32.1646 12.3438 32.1236 12.3438C32.0826 12.3438 32.0957 12.9769 32.1528 13.7507ZM34.8535 17.5363C34.3453 17.7972 33.9684 18.1597 33.6108 18.7313C33.0942 19.5572 32.6213 21.0255 32.8126 21.21C32.8693 21.2646 33.2605 20.9919 33.682 20.6041C34.9309 19.4546 35.2736 19.2994 36.5557 19.3033C37.4732 19.3061 37.854 19.3889 38.5449 19.7358C39.5096 20.2202 39.675 20.1202 39.4891 19.1644C39.3647 18.5261 38.8983 18.0861 37.891 17.6566C36.658 17.1308 35.7156 17.0935 34.8535 17.5363ZM48.6046 17.3405C47.6372 17.6221 46.8474 18.1871 46.5254 18.8282C46.1808 19.5144 46.1068 20 46.3472 20C46.4275 20 46.8835 19.8249 47.3604 19.611C48.8625 18.9369 49.7814 19.1107 50.9693 20.2932C51.6708 20.9916 51.875 20.9927 51.875 20.2983C51.875 19.3413 50.8981 17.9046 49.9137 17.4139C49.4126 17.1641 49.2433 17.1547 48.6046 17.3405ZM35.7451 21.8444C35.0487 22.2717 34.7342 22.6564 34.4525 23.4258C33.6643 25.5792 34.8579 28.3532 36.657 28.5486C37.3134 28.6199 37.4591 28.5742 37.9779 28.1352C39.2141 27.0891 39.5473 24.7652 38.6996 23.1013C38.452 22.6157 38.0589 22.0978 37.826 21.9508C37.1753 21.5397 36.3137 21.4957 35.7451 21.8444ZM47.4981 21.848C45.7784 22.7405 45.3214 25.7666 46.648 27.4775C48.2378 29.5282 50.7873 27.7599 50.5391 24.7786C50.4498 23.7072 50.0275 22.7874 49.3367 22.1596C48.6993 21.5805 48.1823 21.4928 47.4981 21.848ZM36.8071 23.7421C36.3179 24.2136 36.397 24.8653 36.9801 25.1661C37.2968 25.3296 37.8913 25.1313 38.1338 24.7813C38.6597 24.0222 37.4774 23.096 36.8071 23.7421ZM48.2104 23.9713C48.1619 24.0928 48.146 24.3917 48.1749 24.6353C48.2191 25.0078 48.302 25.0782 48.6962 25.0782C49.3113 25.0782 49.571 24.691 49.3164 24.1528C49.1049 23.7052 48.3647 23.5836 48.2104 23.9713ZM24.0574 24.583C23.7012 24.8782 23.6038 25.1146 23.5419 25.833C23.4908 26.428 23.5255 26.7188 23.6479 26.7188C23.7481 26.7188 23.8301 26.6196 23.8301 26.4983C23.8301 26.2125 24.7473 25.4686 25.0989 25.4694C25.5872 25.4703 26.488 26.09 27.4362 27.0774L28.3677 28.0469L28.1074 27.1875C27.5949 25.4958 26.9411 24.6525 25.9241 24.3713C25.054 24.1308 24.5312 24.19 24.0574 24.583ZM53.6906 24.4063C53.392 24.6941 53.4595 25.0175 53.9683 25.7413C54.3209 26.2427 54.4587 26.3444 54.5328 26.1583C54.6596 25.8399 54.6594 24.7846 54.5325 24.466C54.4161 24.1735 53.9653 24.1416 53.6906 24.4063ZM53.3543 27.061C53.2765 27.2594 53.1254 27.9492 53.0182 28.5938C52.9112 29.2383 52.7849 29.9063 52.7376 30.0782L52.6517 30.3907L52.9727 30.0782C53.3927 29.6691 53.8203 28.3985 53.8203 27.5596C53.8203 26.7994 53.5639 26.5252 53.3543 27.061ZM24.6395 27.4232C24.2047 27.9283 24.972 29.9828 25.9461 30.9217C26.9664 31.9053 28.0498 32.1249 28.8026 31.5007C29.1998 31.1714 29.2347 31.0727 29.0923 30.6803C28.9591 30.3128 28.8244 30.2258 28.3264 30.186C27.8198 30.1453 27.7066 30.0694 27.6272 29.7172C27.4315 28.8505 27.1788 28.428 26.4905 27.8164C25.7307 27.1414 25.0133 26.9891 24.6395 27.4232ZM44.1691 29.68C42.977 30.1458 43.28 31.7188 44.5619 31.7188C45.6836 31.7188 46.1537 30.5116 45.2877 29.8552C44.8265 29.5055 44.6761 29.4819 44.1691 29.68ZM45.086 34.3308C44.4901 34.6769 44.1773 34.7447 43.1394 34.7532C42.1282 34.7613 41.7876 34.6975 41.2708 34.4036C40.7334 34.098 40.6055 34.0766 40.415 34.26C40.0733 34.5896 40.3168 34.9489 41.1497 35.3444C41.7681 35.638 42.17 35.7032 43.3643 35.7032C44.6219 35.7032 44.922 35.6492 45.538 35.3125C46.4808 34.7972 46.7133 34.4332 46.2918 34.1314C45.8942 33.8469 45.929 33.8411 45.086 34.3308ZM38.1087 40.5336C37.8599 40.7889 37.7747 41.0135 37.8454 41.2282C37.9566 41.5663 39.6401 43.125 39.894 43.125C40.1274 43.125 41.2115 41.4088 41.1213 41.1822C41.0409 40.9803 39.0877 40.1563 38.6897 40.1563C38.5723 40.1563 38.311 40.3261 38.1087 40.5336ZM43.2617 40.7422L42.8552 41.1719L43.6168 41.9194L44.3783 42.6671L44.6443 42.0263C44.9233 41.3544 44.8988 41.235 44.3656 40.6641C43.9394 40.2078 43.7548 40.2208 43.2617 40.7422ZM45.0656 42.3047C45.0651 42.3692 44.8915 42.6308 44.6795 42.8861C44.3311 43.3058 44.2666 43.3282 44.0049 43.1205C43.7347 42.9058 43.7222 42.9267 43.8148 43.4375C43.8694 43.7383 44.0951 44.7408 44.3162 45.6652C44.5375 46.5897 44.8837 48.8221 45.0857 50.6261C45.3433 52.9277 45.5124 53.9063 45.6524 53.9063C45.7624 53.9063 46.0765 53.7242 46.3508 53.5017C46.9743 52.9961 46.9751 52.9464 46.4408 48.125C45.9742 43.915 45.9199 43.5716 45.5944 42.7735C45.3842 42.2578 45.0679 41.9775 45.0656 42.3047ZM38.2578 42.901C38.2578 42.9555 38.477 43.7255 38.7448 44.6118C39.8614 48.3063 39.9305 49.5166 39.1378 51.5097C38.3632 53.4574 38.3653 53.4324 38.9547 53.6625C39.7909 53.9889 40.848 54.0996 40.9325 53.8697C41.1228 53.3527 41.6819 45.285 41.5895 44.3913C41.4206 42.7575 41.0166 42.3988 40.3396 43.2813C39.9169 43.8324 39.5597 43.8746 39.1358 43.423C38.7999 43.0652 38.2578 42.7428 38.2578 42.901ZM47.4981 55.2014C47.4981 55.398 47.3522 55.8347 47.1738 56.1719C46.7452 56.9822 46.7619 57.0146 47.3348 56.4853L47.8202 56.0374L48.2258 56.4047C48.6811 56.8169 48.6563 56.8253 49.0196 56.1366L49.2856 55.6324L48.4783 55.2382C47.4953 54.758 47.4981 54.7582 47.4981 55.2014ZM36.3347 56.0269C35.5623 56.7402 35.4859 56.8666 35.6495 57.1613C35.7508 57.3436 35.981 57.5689 36.1613 57.6619C36.4373 57.8042 36.5643 57.7532 36.9681 57.3364C37.2317 57.0644 37.4473 56.7482 37.4473 56.6333C37.4473 56.2766 37.7775 56.2069 38.1069 56.4942C38.7103 57.0205 38.555 56.6313 37.8819 55.9302L37.2041 55.2242L36.3347 56.0269Z" fill="white"/>
</svg>
