<svg xmlns="http://www.w3.org/2000/svg" width="512" height="512" viewBox="0 0 512 512" version="1.1">
	<path d="M 254.526 5.702 C 251.236 27.143, 245.261 36.075, 222.709 53.263 C 216.072 58.321, 209.124 64.571, 206.981 67.412 C 200.404 76.127, 196.527 87.468, 195.345 101.450 C 194.991 105.639, 194.337 109.292, 193.892 109.566 C 193.448 109.841, 190.028 107.569, 186.292 104.516 C 177.236 97.116, 167.362 92.302, 157.089 90.278 C 149.748 88.832, 146.885 88.775, 134.102 89.820 C 109.009 91.872, 102.334 91.231, 88.238 85.411 C 79.080 81.630, 76.826 81.300, 75.019 83.477 C 74.031 84.667, 74.388 86.595, 76.859 93.425 C 81.070 105.060, 82.149 114.873, 80.895 130.124 C 78.598 158.069, 84.466 179.011, 98.731 193.777 C 102.215 197.383, 104.714 200.635, 104.283 201.003 C 103.852 201.371, 99.675 202.453, 95 203.407 C 74.215 207.652, 61.872 217.421, 44.186 243.626 C 33.572 259.352, 27.548 266.256, 18.447 273.128 C 12.825 277.373, 11.442 279.667, 12.499 282.998 C 13.215 285.253, 14.135 285.529, 26 287.052 C 37.050 288.469, 47.638 292.020, 57.137 297.494 C 69.118 304.399, 88.116 317.139, 88.700 318.660 C 88.991 319.419, 88.227 322.370, 87.001 325.218 C 85.776 328.067, 82.546 336.945, 79.823 344.948 C 74.635 360.201, 72.550 364.480, 65.304 374.754 C 59.345 383.204, 58.499 385.866, 60.362 390.324 L 61.843 393.868 67.171 391.804 C 71.027 390.310, 74.850 389.733, 81 389.714 C 90.777 389.683, 97.864 391.365, 112.389 397.162 C 132.157 405.051, 144.139 406.641, 159.660 403.435 C 168.477 401.614, 175.828 398.549, 183.346 393.558 C 186.295 391.601, 188.976 390, 189.304 390 C 189.633 390, 189.907 394.482, 189.913 399.961 C 189.940 422.649, 196.466 435.248, 220.492 459 C 240.179 478.462, 245.341 485.827, 251.523 503.277 C 253.039 507.554, 254.678 511.301, 255.167 511.603 C 256.799 512.612, 261.583 506.278, 264.422 499.351 C 273.041 478.324, 279.150 469.347, 293.911 456.019 C 308.910 442.476, 316.453 430.801, 319.501 416.412 C 321.366 407.609, 321.400 395.979, 319.582 388.969 C 318.802 385.963, 318.308 383.358, 318.485 383.182 C 318.661 383.005, 321.662 384.965, 325.153 387.536 C 328.644 390.107, 333.224 393.091, 335.331 394.167 C 341.721 397.430, 353.692 400, 362.500 400 C 372.843 400, 381.827 397.714, 399.027 390.707 C 420.237 382.065, 430.607 380.878, 443.500 385.614 C 454.158 389.529, 454.587 389.560, 456.543 386.574 C 458.214 384.025, 458.177 383.783, 455.271 378.224 C 445.711 359.934, 442.654 353.165, 438.461 341 C 435.902 333.575, 432.012 324.033, 429.816 319.796 C 427.621 315.559, 426.122 311.611, 426.485 311.024 C 426.849 310.436, 429.700 308.661, 432.823 307.079 C 435.945 305.498, 443.225 300.725, 449 296.474 C 464.672 284.937, 472.789 281.491, 491.362 278.491 C 496.003 277.742, 500.263 273.853, 499.817 270.773 C 499.643 269.572, 497.475 267.084, 495 265.245 C 486.598 259, 478 249.875, 467.552 236.115 C 448.403 210.895, 437.305 202.445, 416.184 197 L 411.869 195.888 415.186 192.194 C 420.112 186.708, 424.830 178.913, 427.052 172.592 C 430.259 163.467, 431.064 153.815, 430.774 127.958 L 430.500 103.500 433.711 97 C 435.477 93.425, 437.946 88.843, 439.199 86.818 L 441.477 83.137 439.064 80.568 C 435.857 77.154, 433.289 77.326, 424.979 81.511 C 413.939 87.070, 408.311 87.968, 384.410 87.985 C 366.692 87.998, 362.055 88.319, 355.410 89.993 C 344.712 92.688, 335.012 97.750, 325.878 105.405 L 318.266 111.785 317.729 100.142 C 316.850 81.084, 313.562 74.297, 296.339 55.998 C 279.988 38.624, 272.736 26.896, 269.442 12.497 C 267.179 2.603, 267.130 2.545, 260.701 2.202 L 255.109 1.903 254.526 5.702 M 262 24.098 C 262 24.701, 260.157 28.968, 257.904 33.580 C 253.182 43.245, 245.547 52.016, 231.648 63.743 C 220.645 73.026, 218.831 75.043, 215.675 81.500 C 207.162 98.921, 210.398 127.900, 224.923 164.307 C 231.126 179.855, 236.429 190.763, 239.239 193.754 C 242.147 196.850, 246.602 196.443, 249.281 192.837 C 251.142 190.333, 251.308 187.775, 252.060 149.837 C 252.875 108.717, 253.882 92.495, 256.610 76.511 C 259.693 58.449, 260.410 64.506, 260.458 109 C 260.481 130.175, 260.093 157.668, 259.595 170.095 C 258.698 192.488, 258.709 192.709, 260.845 194.845 C 263.658 197.658, 268.076 197.615, 270.756 194.750 C 275.495 189.684, 299.658 135.566, 302.980 122.579 C 306.559 108.585, 305.203 95.715, 298.926 84.081 C 297.269 81.012, 291.608 73.100, 286.346 66.500 C 274.578 51.739, 269.023 42.419, 265.451 31.438 C 262.843 23.421, 262 21.628, 262 24.098 M 416.213 95.506 C 410.568 97.959, 399.026 99.824, 385 100.550 C 364.244 101.624, 351.145 105.726, 337.593 115.397 C 324.591 124.674, 318.023 134.195, 303.941 164.176 C 298.493 175.773, 292.008 188.721, 289.530 192.950 C 283.736 202.832, 282.996 206.183, 286.123 208.373 C 289.718 210.891, 292.609 210.383, 295.355 206.750 C 297.863 203.432, 299.554 200.197, 309.341 180 C 312.405 173.675, 317.148 165.105, 319.879 160.955 C 329.427 146.449, 344.012 132.921, 351.750 131.392 C 356.573 130.439, 355.701 132.037, 349.063 136.313 C 341.712 141.049, 329.971 153.239, 323.839 162.500 C 318.310 170.851, 311 185.114, 311 187.553 C 311 188.606, 319.188 181.244, 331.750 168.895 C 354.343 146.685, 359.537 142.419, 376.225 132.364 C 385.476 126.791, 393.714 121.109, 401.937 114.632 C 404.168 112.874, 398.927 121.725, 395.065 126.237 C 393.167 128.454, 387.314 133.441, 382.057 137.319 C 376.245 141.607, 366.428 150.666, 357.004 160.435 C 348.482 169.271, 332.394 185.609, 321.254 196.742 C 310.114 207.875, 301 217.452, 301 218.024 C 301 220.583, 304.921 219.888, 316.774 215.227 C 334.410 208.291, 351.913 202.749, 370.970 198.068 C 389.266 193.574, 393.501 191.520, 402.779 182.638 C 410.585 175.166, 415.256 166.296, 415.685 158.134 C 415.848 155.035, 416.444 143.490, 417.010 132.478 C 417.692 119.218, 418.708 109.656, 420.020 104.165 C 421.109 99.604, 422 95.452, 422 94.937 C 422 93.637, 420.080 93.826, 416.213 95.506 M 91 98.871 C 91 99.423, 91.716 102.941, 92.591 106.688 C 93.573 110.893, 94.480 121.538, 94.961 134.500 C 95.657 153.266, 96.023 156.374, 98.403 163.717 C 101.015 171.775, 105.334 178.695, 110.837 183.638 C 119.662 191.564, 150.733 204.199, 184.439 213.569 C 211.258 221.025, 213.791 219.485, 199.405 204.470 C 194.677 199.537, 185.115 189.200, 178.155 181.501 C 157.276 158.404, 147.216 148.391, 132.500 136.060 C 124.800 129.608, 117.829 123.516, 117.008 122.521 C 115.622 120.840, 115.693 120.767, 118.008 121.488 C 123.108 123.077, 138.773 131.398, 146.935 136.854 C 157.119 143.661, 172.751 158.454, 190.405 177.991 C 216.579 206.957, 220.276 209.987, 223.989 205.513 C 225.702 203.449, 224.915 200.905, 217.022 183 C 213.264 174.475, 208.554 163.513, 206.554 158.640 C 201.709 146.831, 196.852 137.110, 192.886 131.282 C 187.538 123.423, 178.049 114.794, 170.252 110.699 C 160.611 105.636, 152.414 104.038, 135.974 104.017 C 117.340 103.993, 107.674 102.732, 92.750 98.376 C 91.787 98.095, 91 98.318, 91 98.871 M 232.863 114.500 C 232.513 115.050, 231.920 118.650, 231.546 122.500 C 230.742 130.760, 232.279 144.511, 234.920 152.681 C 236.738 158.307, 236.804 158.378, 236.900 154.822 C 236.955 152.800, 236.531 147.774, 235.958 143.654 C 235.385 139.534, 234.598 131.064, 234.208 124.832 C 233.819 118.599, 233.214 113.950, 232.863 114.500 M 284.110 124.257 C 282.155 137.751, 280.605 146.795, 279.050 153.774 C 277.987 158.546, 277.280 162.613, 277.479 162.812 C 278.333 163.666, 281.434 157.405, 283.059 151.545 C 285.434 142.977, 286.280 133.460, 285.150 128 C 284.638 125.525, 284.170 123.840, 284.110 124.257 M 175.077 147.894 C 182.460 154.986, 192.100 165.066, 196.500 170.295 C 200.900 175.523, 204.811 179.610, 205.190 179.378 C 207.745 177.815, 194.241 159.930, 181.928 148.569 C 175.569 142.701, 164.640 135, 162.672 135 C 162.112 135, 167.694 140.802, 175.077 147.894 M 374.495 158.094 C 365.491 170.944, 356.250 180.758, 342.131 192.468 C 326.416 205.500, 324.725 208.294, 337.500 200.119 C 357.883 187.075, 373.652 170.056, 380.461 153.750 C 383.006 147.656, 380.563 149.434, 374.495 158.094 M 135 168.076 C 135 170.367, 152.566 186.680, 161.086 192.301 C 168.920 197.470, 182.612 203.722, 183.705 202.629 C 183.952 202.381, 181.082 200.384, 177.327 198.191 C 169.976 193.897, 157.034 184.420, 145 174.517 C 136.126 167.214, 135 166.489, 135 168.076 M 247.108 207.082 C 240.638 208.352, 231.133 213.157, 225.927 217.789 C 209.031 232.823, 209.324 262.128, 226.527 277.851 C 234.629 285.255, 241.014 287.498, 254 287.499 C 263.729 287.500, 264.993 287.266, 271.223 284.315 C 280.137 280.093, 287.221 273.327, 291.207 265.232 C 293.867 259.828, 294.465 257.307, 294.813 250.029 C 295.878 227.758, 282.833 211.140, 261.040 207.008 C 255.004 205.863, 253.267 205.872, 247.108 207.082 M 386.500 211.621 C 375.269 213.334, 365.215 215.576, 355.318 218.576 C 341.463 222.776, 310.176 234.783, 307.750 236.832 C 306.788 237.645, 306 239.542, 306 241.048 C 306 242.686, 306.703 244.106, 307.750 244.582 C 308.712 245.020, 329.075 245.427, 353 245.485 C 400.563 245.602, 402.375 245.776, 421.223 252.043 C 429.784 254.890, 442.569 260.764, 441.824 261.509 C 441.616 261.717, 439.646 261.483, 437.446 260.989 C 421.427 257.390, 397.264 254.902, 374 254.456 C 360.525 254.198, 340.418 253.468, 329.318 252.834 C 310.733 251.772, 308.928 251.817, 306.508 253.403 C 303.022 255.687, 303.367 259.945, 307.186 261.767 C 308.664 262.471, 315.864 264.121, 323.186 265.432 C 362.911 272.547, 384.549 279.780, 404.733 292.692 C 408.336 294.998, 411.626 296.345, 413.500 296.285 C 417.827 296.144, 426.337 292.714, 435.250 287.518 C 439.512 285.033, 446.488 280.967, 450.750 278.482 C 459.695 273.267, 467.037 270.338, 475.420 268.641 L 481.339 267.442 474.920 262.326 C 467.476 256.394, 459.326 247.998, 449.365 236 C 436.967 221.066, 431.850 217.438, 418.169 213.885 C 410.704 211.946, 392.774 210.664, 386.500 211.621 M 108.360 216.406 C 95.679 218.833, 85.359 223.222, 77 229.744 C 71.414 234.103, 69.193 236.532, 57.297 251.285 C 52.071 257.767, 44.277 266.170, 39.978 269.959 C 31.952 277.031, 31.705 278, 37.922 278 C 47.026 278, 66.313 285.567, 80.264 294.613 C 89.297 300.470, 96.717 303.978, 100.101 303.990 C 101.532 303.996, 104.457 302.644, 106.601 300.988 C 127.490 284.848, 141.027 278.860, 175.819 270.368 C 188.239 267.336, 199.200 264.428, 200.178 263.905 C 202.977 262.407, 204.132 259.477, 203.048 256.626 C 201.450 252.424, 198.838 251.701, 189.662 252.921 C 185.173 253.518, 168.225 254.904, 152 256.001 C 121.695 258.051, 104.245 259.931, 92.324 262.430 C 88.583 263.214, 85.370 263.703, 85.183 263.516 C 84.503 262.836, 94.309 257.666, 101.779 254.766 C 118.203 248.388, 141.469 244.855, 178.996 243.040 C 196.471 242.195, 199.676 241.796, 200.746 240.333 C 204.139 235.693, 201.403 233.169, 189.500 229.960 C 185.100 228.774, 176.325 226.289, 170 224.438 C 140.176 215.709, 123.413 213.525, 108.360 216.406 M 371.500 227.394 C 358.590 229.533, 336.925 236.258, 338.351 237.684 C 338.577 237.911, 344.554 236.765, 351.631 235.139 C 358.709 233.512, 368.013 231.656, 372.306 231.014 C 381.683 229.611, 400.574 229.534, 407.497 230.870 C 411.931 231.725, 412.274 231.674, 410.543 230.408 C 409.470 229.623, 406.997 228.505, 405.046 227.922 C 399.370 226.227, 380.352 225.927, 371.500 227.394 M 129.500 231.626 C 119.276 233.639, 116.043 234.481, 112.182 236.136 C 109.726 237.189, 107.895 238.228, 108.113 238.446 C 108.331 238.664, 112.107 237.937, 116.504 236.831 C 127.674 234.022, 145.871 234.036, 159.935 236.864 C 165.675 238.018, 170.543 238.790, 170.754 238.579 C 171.549 237.784, 159.208 233.738, 152 232.431 C 144.924 231.147, 133.930 230.754, 129.500 231.626 M 342 264.269 C 342 264.970, 350.093 266.734, 359.445 268.071 C 369.544 269.516, 392.763 269.354, 398.615 267.798 C 403.169 266.588, 402.008 266.457, 381.500 265.868 C 369.400 265.520, 355.563 264.891, 350.750 264.470 C 345.938 264.048, 342 263.957, 342 264.269 M 164.500 266.115 C 152.377 267.609, 119.588 273.215, 117.500 274.151 C 113.364 276.005, 140.699 274.053, 154 271.544 C 167.987 268.907, 177.795 266.538, 178.770 265.563 C 179.525 264.809, 173.084 265.058, 164.500 266.115 M 202.500 276.702 C 194.695 278.538, 170.846 285.789, 163 288.711 C 143.158 296.102, 127.848 305.425, 115.159 317.844 C 105.546 327.253, 100.446 334.892, 95.540 347.231 C 91.126 358.331, 87.197 365.562, 81.478 373.113 L 77.226 378.725 90.363 379.296 C 101.213 379.767, 106.373 380.590, 120 384.020 C 153.852 392.541, 169.120 390.156, 184.397 373.962 C 189.541 368.509, 191.927 364.701, 197.588 352.908 C 201.390 344.990, 209.533 328.412, 215.685 316.069 C 227.137 293.094, 227.676 291.241, 223.387 289.595 C 219.008 287.915, 212.957 296.121, 201.068 319.864 C 192.381 337.213, 184.085 351.240, 179.107 357 C 173.777 363.166, 175.731 358.094, 186.042 339 C 195.599 321.304, 198.977 313.643, 197.761 312.427 C 197.453 312.119, 187.368 318.575, 175.350 326.773 C 132.733 355.847, 129.496 357.961, 129.155 356.951 C 128.585 355.265, 136.688 345.524, 146.150 336.520 C 155.301 327.811, 173.651 313.202, 189.500 302.007 C 200.582 294.179, 208.640 287.479, 210.634 284.436 C 211.862 282.561, 211.916 281.704, 210.921 279.817 C 208.958 276.090, 207.460 275.536, 202.500 276.702 M 295.902 279.316 C 294.109 283.252, 296.514 286.016, 307.551 292.704 C 326.350 304.095, 346.646 317.353, 355.500 324.026 C 364.539 330.838, 380.558 346.529, 385.008 352.931 C 387.887 357.071, 388.803 357.593, 366 342.120 C 343.527 326.871, 314.266 309, 311.772 309 C 310.069 309, 310.051 309.198, 311.495 311.991 C 315.112 318.984, 332.711 338.059, 346 349.389 C 349.600 352.458, 350 353.085, 348 352.519 C 337.844 349.648, 312.479 324.886, 303.597 309.171 C 296.717 297, 288.400 289.103, 283.949 290.516 C 281.432 291.315, 279.821 294.352, 280.681 296.678 C 281.414 298.660, 298.917 329.734, 307.881 344.964 C 317.126 360.674, 326.782 371.314, 337.353 377.440 C 349.692 384.590, 364.895 384.785, 386.993 378.077 C 405.986 372.311, 413.933 370.849, 426.250 370.855 C 432.460 370.858, 437 370.454, 437 369.899 C 437 369.371, 435.180 365.728, 432.956 361.803 C 430.733 357.878, 426.202 348.555, 422.888 341.084 C 415.886 325.298, 411.724 319.373, 401.582 310.755 C 384.027 295.837, 365.688 288.514, 327 280.972 C 318.475 279.311, 308.257 277.673, 304.294 277.332 C 297.244 276.727, 297.062 276.770, 295.902 279.316 M 328 296.302 C 328 296.565, 332.837 298.697, 338.750 301.040 C 354.831 307.413, 367.620 314.239, 375.978 320.909 C 380.091 324.191, 383.645 326.688, 383.875 326.459 C 384.105 326.229, 383.131 324.286, 381.712 322.141 C 376.239 313.871, 363.850 306.197, 347 300.639 C 336.967 297.330, 328 295.283, 328 296.302 M 173.509 299.736 C 164.824 301.933, 142.577 314.639, 137 320.587 L 133.500 324.319 139 321.153 C 142.025 319.412, 151.813 314.059, 160.750 309.257 C 177.420 300.301, 180.573 297.949, 173.509 299.736 M 239.708 302.250 C 237.688 303.758, 226.729 325.867, 220.625 340.748 C 208.979 369.140, 204.196 392.822, 206.934 408.542 C 209.392 422.659, 214.337 430.891, 229.766 446.550 C 241.872 458.837, 247.534 466.547, 252.771 477.878 L 256.294 485.500 257.981 479.500 C 261.722 466.197, 265.167 460.917, 280.492 445 C 286.582 438.675, 293.184 431.475, 295.164 429 C 303.874 418.112, 306.702 407.494, 304.884 392.504 C 302.726 374.713, 296.794 358.820, 281.745 330.511 C 266.318 301.488, 265.110 299.878, 260 301.500 C 257.487 302.298, 257.435 306.331, 259.617 331.500 C 261.322 351.153, 262.555 453, 261.089 453 C 258.993 453, 253.166 393.203, 251.977 359.500 C 251.043 333, 249.682 312.883, 248.409 306.740 C 247.345 301.607, 243.338 299.540, 239.708 302.250 M 236.094 342.483 C 233.559 348.675, 230.070 364.164, 228.931 374.287 C 228.008 382.494, 228.020 387.003, 228.989 394.907 C 229.670 400.470, 230.572 405.235, 230.993 405.496 C 231.413 405.756, 231.979 399.113, 232.249 390.734 C 232.561 381.062, 233.726 369.560, 235.440 359.230 C 238.198 342.603, 238.425 336.788, 236.094 342.483 M 278.004 344.550 C 278.006 345.072, 280.037 352.457, 282.517 360.960 C 286.475 374.532, 288.500 385.439, 290.671 404.871 C 291.044 408.212, 291.434 408.965, 292.329 408.066 C 293.841 406.550, 293.675 389.737, 292.065 381.143 C 290.186 371.118, 286.214 358.321, 282.907 351.636 C 279.832 345.419, 277.997 342.768, 278.004 344.550 M 265.100 359.344 C 264.941 362.277, 270.130 387.400, 271.112 388.450 C 272.467 389.900, 272.193 384.848, 270.460 376.458 C 268.616 367.534, 265.240 356.754, 265.100 359.344" stroke="none" fill="white" fill-rule="evenodd"/>
</svg>